<?xml version="1.0" encoding="utf-8"?>
<!-- Generator: Adobe Illustrator 25.4.1, SVG Export Plug-In . SVG Version: 6.00 Build 0)  -->
<svg version="1.1" id="Layer_1" xmlns="http://www.w3.org/2000/svg" xmlns:xlink="http://www.w3.org/1999/xlink" x="0px" y="0px"
	 viewBox="0 0 1244.97 1648.55" style="enable-background:new 0 0 1244.97 1648.55;" xml:space="preserve">
<style type="text/css">
	.st0{fill:#628FBD;}
	.st1{fill:#CCE0F8;}
	.st2{fill:#FF7C78;}
	.st3{fill:#DC545A;}
	.st4{fill:#01305A;}
	.st5{fill:#064D81;}
	.st6{opacity:0.4;fill:#FFFFFF;}
	.st7{opacity:0.41;clip-path:url(#XMLID_00000099649301399882534630000016697534879704769460_);fill:#01305A;}
	.st8{fill:#FFFFFF;}
	.st9{fill:#003159;}
</style>
<g>
	<g>
		<g>
			<g>
				<g>
					<path class="st0" d="M835.82,858.29h-32.63v-38.04h32.63c46.33,0,89.18-27.01,109.16-68.81l98.18-205.39
						c15.52-32.47,15.83-69.86,0.84-102.57c-19.65-42.89-62.82-70.6-110-70.6h-94.51v-38.04H934c62,0,118.75,36.42,144.58,92.79
						c19.7,43,19.3,92.15-1.1,134.83L979.3,767.85c-12.96,27.12-33.25,49.92-58.68,65.95C895.2,849.82,865.88,858.29,835.82,858.29z
						"/>
				</g>
				<path class="st0" d="M495.59,984.35c-21.9,0-42.8-8.21-58.85-23.11c-16.05-14.91-25.77-35.14-27.38-56.98l-55.03-745.2H865.1
					l-55.03,745.2c-1.61,21.84-11.34,42.08-27.39,56.98c-16.05,14.91-36.95,23.11-58.85,23.11H495.59z"/>
				<path class="st1" d="M754.22,170.24H465.2h-98.83l54.15,733.18c2.9,39.32,35.65,69.73,75.07,69.73h228.24
					c39.42,0,72.17-30.42,75.07-69.73l54.15-733.18H754.22z"/>
				<g>
					<path class="st2" d="M689.02,453.78l-160.5,49.68l-17.18-55.51l113.38-246.37l58.43-18.08l58.13,187.83l54.99-17.02
						l18.72,60.49l-54.99,17.02l21.81,70.46l-70.97,21.97L689.02,453.78z M644.82,310.97l-47.04,104.76l72.52-22.44L644.82,310.97z"
						/>
				</g>
				<g>
					<path class="st2" d="M600.01,860.73L475.15,973.16l-38.88-43.18l-0.44-271.2l45.45-40.93l131.57,146.11l42.78-38.52L698,772.5
						l-42.78,38.52l49.35,54.81l-55.21,49.71L600.01,860.73z M499.98,749.64l1.25,114.83l56.41-50.8L499.98,749.64z"/>
				</g>
				<g>
					<path class="st2" d="M505.55,606.48c0-12.07,0.85-23.72,2.56-34.96c1.7-11.24,4.4-21.77,8.08-31.58
						c3.68-9.81,8.5-18.75,14.44-26.81c5.94-8.06,13.15-14.99,21.63-20.8c8.48-5.8,18.29-10.3,29.44-13.47
						c11.15-3.18,23.86-4.77,38.14-4.77c14.37,0,27.2,1.59,38.49,4.77c11.28,3.18,21.21,7.67,29.78,13.47
						c8.57,5.8,15.85,12.74,21.83,20.8c5.99,8.06,10.87,17,14.65,26.81c3.78,9.81,6.52,20.34,8.22,31.58
						c1.7,11.24,2.56,22.9,2.56,34.96c0,12.16-0.85,23.89-2.56,35.17c-1.71,11.29-4.45,21.84-8.22,31.65
						c-3.78,9.81-8.66,18.75-14.65,26.81c-5.99,8.06-13.27,14.97-21.83,20.73c-8.57,5.76-18.5,10.23-29.78,13.41
						c-11.29,3.18-24.11,4.77-38.49,4.77c-14.28,0-27-1.59-38.14-4.77c-11.15-3.18-20.96-7.65-29.44-13.41
						c-8.48-5.76-15.68-12.67-21.63-20.73c-5.94-8.06-10.76-17-14.44-26.81c-3.69-9.81-6.38-20.36-8.08-31.65
						C506.4,630.37,505.55,618.65,505.55,606.48z M675.26,606.48c0-4.15-0.19-9.1-0.55-14.86c-0.37-5.76-1.2-11.77-2.49-18.03
						c-1.29-6.26-3.13-12.46-5.53-18.59c-2.4-6.13-5.67-11.63-9.81-16.51c-4.15-4.88-9.24-8.82-15.27-11.82
						c-6.04-2.99-13.29-4.49-21.77-4.49c-8.39,0-15.57,1.5-21.56,4.49c-5.99,2.99-11.01,6.93-15.06,11.82
						c-4.06,4.88-7.28,10.39-9.67,16.51c-2.4,6.13-4.24,12.32-5.53,18.59c-1.29,6.27-2.12,12.28-2.49,18.03
						c-0.37,5.76-0.55,10.71-0.55,14.86c0,4.15,0.18,9.14,0.55,14.99c0.37,5.85,1.2,11.91,2.49,18.17
						c1.29,6.27,3.13,12.51,5.53,18.73c2.39,6.22,5.62,11.77,9.67,16.65c4.05,4.88,9.07,8.84,15.06,11.88
						c5.99,3.04,13.17,4.56,21.56,4.56c8.48,0,15.73-1.52,21.77-4.56c6.03-3.04,11.12-7,15.27-11.88
						c4.15-4.88,7.41-10.43,9.81-16.65c2.39-6.22,4.24-12.46,5.53-18.73c1.29-6.26,2.12-12.32,2.49-18.17
						C675.07,615.63,675.26,610.63,675.26,606.48z"/>
				</g>
				<polygon class="st0" points="366.37,170.24 299.99,170.24 377.03,314.61 				"/>
				<g>
					<path class="st3" d="M544.06,498.64c0,0,77.71-24.62,79.32-24.55c1.61,0.07,15.58-0.19,34.94,4.77
						c0,0-120.52,34.25-148.33,82.34C510,561.19,518.41,518.42,544.06,498.64z"/>
					<path class="st3" d="M509.33,648.84l77.86,87.08c0,0-33.71-3.31-54.86-29.37C511.82,681.28,509.33,648.84,509.33,648.84z"/>
				</g>
				<g>
					<path class="st4" d="M865.1,159.05H354.32l0,0c0-22.17,17.97-40.14,40.14-40.14h430.49
						C847.12,118.91,865.1,136.88,865.1,159.05L865.1,159.05z"/>
					<path class="st5" d="M677.01,118.91H536.8l5.61,0c0-30.11,24.41-54.52,54.52-54.52h31.16c30.11,0,54.52,24.41,54.52,54.52
						L677.01,118.91z"/>
				</g>
				<g>
					<rect x="557.64" y="170.24" class="st6" width="29.55" height="802.92"/>
					
						<rect x="481.28" y="170.24" transform="matrix(-1 -1.224647e-16 1.224647e-16 -1 1010.0892 1143.3979)" class="st6" width="47.53" height="802.92"/>
				</g>
			</g>
			<g>
				<rect x="477.48" y="973.16" class="st4" width="261.9" height="46.83"/>
				<g>
					<defs>
						<path id="XMLID_1_" d="M741.04,1019.99H636.94h-55.38H477.48c-195.75,188.85-182.87,486.72-182.87,486.72h286.96h55.38h286.96
							C923.91,1506.71,936.79,1208.84,741.04,1019.99z"/>
					</defs>
					<use xlink:href="#XMLID_1_"  style="overflow:visible;fill:#005187;"/>
					<clipPath id="XMLID_00000026858748619872179020000008493423155364351161_">
						<use xlink:href="#XMLID_1_"  style="overflow:visible;"/>
					</clipPath>
					<path style="opacity:0.41;clip-path:url(#XMLID_00000026858748619872179020000008493423155364351161_);fill:#01305A;" d="
						M828.14,1085.29c0,0-210.48,195.94-544.95,223.49c0,0,82.08-288.79,221.28-312.21h248.6L828.14,1085.29z"/>
				</g>
				<g>
					<path class="st4" d="M389.73,1559.93h-10.61c-11.77,0-21.31-9.54-21.31-21.31v-31.92h53.22v31.92
						C411.04,1550.39,401.5,1559.93,389.73,1559.93z"/>
					<path class="st4" d="M837.4,1559.93L837.4,1559.93c-14.7,0-26.61-11.91-26.61-26.61v-26.61h53.22v26.61
						C864.01,1548.02,852.1,1559.93,837.4,1559.93z"/>
				</g>
				<g>
					<path class="st4" d="M622,1136.6v43.96H599.1v-43.96c-50.49,5.69-89.74,48.53-89.74,100.54c0,55.89,45.31,101.19,101.19,101.19
						s101.19-45.31,101.19-101.19C711.74,1185.13,672.5,1142.29,622,1136.6z"/>
					<rect x="599.33" y="1123.15" class="st8" width="22.67" height="57.4"/>
				</g>
				<g>
					
						<ellipse transform="matrix(0.1602 -0.9871 0.9871 0.1602 -969.3827 1721.0582)" class="st9" cx="526.74" cy="1430.22" rx="22.26" ry="22.26"/>
					
						<ellipse transform="matrix(0.1602 -0.9871 0.9871 0.1602 -900.0833 1802.51)" class="st9" cx="609.26" cy="1430.22" rx="22.26" ry="22.26"/>
					
						<ellipse transform="matrix(0.1602 -0.9871 0.9871 0.1602 -830.7838 1883.9618)" class="st9" cx="691.77" cy="1430.22" rx="22.26" ry="22.26"/>
				</g>
				<circle class="st0" cx="610.67" cy="1234.62" r="77.79"/>
			</g>
		</g>
	</g>
	<g>
		<path class="st8" d="M422.08,381.55c0,0,14.3,144.56,313.3,200.55C735.37,582.1,437.35,580.41,422.08,381.55z"/>
		<path class="st8" d="M478.07,534.46c0,0,27.39,96.66,297.37,95.27C775.43,629.73,511.86,668.02,478.07,534.46z"/>
	</g>
</g>
</svg>
