<svg width="614" height="87" viewBox="0 0 614 87" fill="none" xmlns="http://www.w3.org/2000/svg">
<path d="M26.472 86.96C18.472 86.96 12.136 85.168 7.464 81.584C2.792 78 0.456 72.88 0.456 66.224C0.456 64.752 0.616 62.992 0.936 60.944C1.704 56.336 2.92 50.64 4.584 43.856C6.696 35.344 10.568 28.88 16.2 24.464C21.832 20.048 29.192 17.84 38.28 17.84C43.272 17.84 47.784 18.608 51.816 20.144C55.912 21.68 59.144 23.888 61.512 26.768C63.88 29.648 65.064 33.072 65.064 37.04C65.064 38.448 64.936 39.76 64.68 40.976C64.552 41.552 64.264 42.032 63.816 42.416C63.432 42.8 62.952 42.992 62.376 42.992H49.32C48.424 42.992 47.752 42.832 47.304 42.512C46.92 42.128 46.696 41.456 46.632 40.496C46.696 37.36 45.896 35.12 44.232 33.776C42.568 32.368 40.136 31.664 36.936 31.664C29.256 31.664 24.392 35.888 22.344 44.336C21 49.584 19.848 54.96 18.888 60.464C18.632 61.808 18.504 63.152 18.504 64.496C18.504 70.256 21.576 73.136 27.72 73.136C30.856 73.136 33.576 72.464 35.88 71.12C38.184 69.712 40.072 67.44 41.544 64.304C41.992 63.344 42.472 62.704 42.984 62.384C43.496 62 44.2 61.808 45.096 61.808H58.152C58.728 61.808 59.176 62 59.496 62.384C59.752 62.64 59.88 62.96 59.88 63.344C59.88 63.472 59.848 63.632 59.784 63.824C57.992 71.056 54.216 76.72 48.456 80.816C42.696 84.912 35.368 86.96 26.472 86.96ZM67.3845 86C66.6805 86 66.1365 85.776 65.7525 85.328C65.4325 84.816 65.3365 84.24 65.4645 83.6L78.7125 21.2C78.8405 20.496 79.1925 19.92 79.7685 19.472C80.3445 19.024 80.9525 18.8 81.5925 18.8H126.425C127.129 18.8 127.673 19.024 128.057 19.472C128.377 19.792 128.537 20.208 128.537 20.72C128.537 20.848 128.505 21.008 128.441 21.2L126.521 30.224C126.329 30.928 125.945 31.504 125.369 31.952C124.857 32.4 124.249 32.624 123.545 32.624H93.0165L90.1365 45.584H118.649C119.353 45.584 119.897 45.808 120.281 46.256C120.537 46.64 120.665 47.056 120.665 47.504C120.665 47.696 120.633 47.888 120.569 48.08L118.745 56.432C118.617 57.136 118.265 57.712 117.689 58.16C117.113 58.608 116.505 58.832 115.865 58.832H87.3525L84.5685 72.176H115.865C116.569 72.176 117.113 72.4 117.497 72.848C117.753 73.168 117.881 73.552 117.881 74C117.881 74.192 117.849 74.384 117.785 74.576L115.865 83.6C115.737 84.304 115.385 84.88 114.809 85.328C114.297 85.776 113.689 86 112.985 86H67.3845ZM128.603 86C127.899 86 127.355 85.776 126.971 85.328C126.651 84.816 126.555 84.24 126.683 83.6L139.931 21.2C140.059 20.496 140.411 19.92 140.987 19.472C141.563 19.024 142.171 18.8 142.811 18.8H168.347C175.451 18.8 181.147 20.272 185.435 23.216C189.787 26.16 191.963 30.416 191.963 35.984C191.963 37.584 191.771 39.248 191.387 40.976C189.787 48.336 186.555 53.776 181.691 57.296C176.891 60.816 170.299 62.576 161.915 62.576H148.955L144.539 83.6C144.411 84.304 144.059 84.88 143.483 85.328C142.907 85.776 142.299 86 141.659 86H128.603ZM162.587 49.328C165.275 49.328 167.611 48.592 169.595 47.12C171.643 45.648 172.987 43.536 173.627 40.784C173.819 39.696 173.915 38.736 173.915 37.904C173.915 36.048 173.371 34.64 172.283 33.68C171.195 32.656 169.339 32.144 166.715 32.144H155.195L151.547 49.328H162.587ZM208.26 86C207.556 86 207.012 85.776 206.628 85.328C206.244 84.816 206.116 84.24 206.244 83.6L216.9 33.872H199.812C199.108 33.872 198.564 33.648 198.18 33.2C197.86 32.688 197.764 32.112 197.892 31.472L200.1 21.2C200.228 20.496 200.58 19.92 201.156 19.472C201.732 19.024 202.34 18.8 202.98 18.8H254.628C255.332 18.8 255.876 19.024 256.26 19.472C256.516 19.856 256.644 20.24 256.644 20.624C256.644 20.816 256.612 21.008 256.548 21.2L254.34 31.472C254.212 32.176 253.86 32.752 253.284 33.2C252.772 33.648 252.164 33.872 251.46 33.872H234.468L223.812 83.6C223.684 84.304 223.332 84.88 222.756 85.328C222.18 85.776 221.572 86 220.932 86H208.26ZM253.76 86C253.056 86 252.512 85.776 252.128 85.328C251.808 84.816 251.712 84.24 251.84 83.6L265.088 21.2C265.216 20.496 265.568 19.92 266.144 19.472C266.72 19.024 267.328 18.8 267.968 18.8H312.8C313.504 18.8 314.048 19.024 314.432 19.472C314.752 19.792 314.912 20.208 314.912 20.72C314.912 20.848 314.88 21.008 314.816 21.2L312.896 30.224C312.704 30.928 312.32 31.504 311.744 31.952C311.232 32.4 310.624 32.624 309.92 32.624H279.392L276.512 45.584H305.024C305.728 45.584 306.272 45.808 306.656 46.256C306.912 46.64 307.04 47.056 307.04 47.504C307.04 47.696 307.008 47.888 306.944 48.08L305.12 56.432C304.992 57.136 304.64 57.712 304.064 58.16C303.488 58.608 302.88 58.832 302.24 58.832H273.728L270.944 72.176H302.24C302.944 72.176 303.488 72.4 303.872 72.848C304.128 73.168 304.256 73.552 304.256 74C304.256 74.192 304.224 74.384 304.16 74.576L302.24 83.6C302.112 84.304 301.76 84.88 301.184 85.328C300.672 85.776 300.064 86 299.36 86H253.76ZM335.887 86C335.183 86 334.639 85.776 334.255 85.328C333.871 84.88 333.743 84.304 333.871 83.6L347.119 21.2C347.247 20.496 347.599 19.92 348.175 19.472C348.751 19.024 349.391 18.8 350.095 18.8H360.463C361.999 18.8 362.991 19.504 363.439 20.912L373.903 51.152L397.231 20.912C397.551 20.4 397.999 19.92 398.575 19.472C399.215 19.024 399.983 18.8 400.879 18.8H411.343C412.047 18.8 412.591 19.024 412.975 19.472C413.231 19.856 413.359 20.24 413.359 20.624C413.359 20.816 413.327 21.008 413.263 21.2L400.015 83.6C399.887 84.304 399.535 84.88 398.959 85.328C398.383 85.776 397.775 86 397.135 86H385.519C384.815 86 384.271 85.776 383.887 85.328C383.567 84.816 383.471 84.24 383.599 83.6L391.087 48.176L376.399 67.664C375.759 68.368 375.151 68.912 374.575 69.296C373.999 69.68 373.327 69.872 372.559 69.872H367.567C366.223 69.872 365.295 69.136 364.783 67.664L357.967 47.312L350.287 83.6C350.159 84.304 349.807 84.88 349.231 85.328C348.655 85.776 348.047 86 347.407 86H335.887ZM415.291 86C414.587 86 414.043 85.776 413.659 85.328C413.339 84.816 413.243 84.24 413.371 83.6L426.619 21.2C426.747 20.496 427.099 19.92 427.675 19.472C428.251 19.024 428.859 18.8 429.499 18.8H474.331C475.035 18.8 475.579 19.024 475.963 19.472C476.283 19.792 476.443 20.208 476.443 20.72C476.443 20.848 476.411 21.008 476.347 21.2L474.427 30.224C474.235 30.928 473.851 31.504 473.275 31.952C472.763 32.4 472.155 32.624 471.451 32.624H440.923L438.043 45.584H466.555C467.259 45.584 467.803 45.808 468.187 46.256C468.443 46.64 468.571 47.056 468.571 47.504C468.571 47.696 468.539 47.888 468.475 48.08L466.651 56.432C466.523 57.136 466.171 57.712 465.595 58.16C465.019 58.608 464.411 58.832 463.771 58.832H435.259L432.475 72.176H463.771C464.475 72.176 465.019 72.4 465.403 72.848C465.659 73.168 465.787 73.552 465.787 74C465.787 74.192 465.755 74.384 465.691 74.576L463.771 83.6C463.643 84.304 463.291 84.88 462.715 85.328C462.203 85.776 461.595 86 460.891 86H415.291ZM476.51 86C475.806 86 475.262 85.776 474.878 85.328C474.558 84.816 474.462 84.24 474.59 83.6L487.838 21.2C487.966 20.496 488.318 19.92 488.894 19.472C489.47 19.024 490.078 18.8 490.718 18.8H500.894C502.43 18.8 503.39 19.408 503.774 20.624L519.422 57.776L527.198 21.2C527.326 20.496 527.678 19.92 528.254 19.472C528.83 19.024 529.438 18.8 530.078 18.8H541.598C542.302 18.8 542.846 19.024 543.23 19.472C543.55 19.792 543.71 20.208 543.71 20.72C543.71 20.848 543.678 21.008 543.614 21.2L530.27 83.504C530.142 84.208 529.79 84.816 529.214 85.328C528.702 85.776 528.094 86 527.39 86H517.214C516.318 86 515.678 85.84 515.294 85.52C514.91 85.136 514.59 84.688 514.334 84.176L498.494 48.368L491.006 83.6C490.878 84.304 490.526 84.88 489.95 85.328C489.374 85.776 488.734 86 488.03 86H476.51ZM572.483 86.96C564.931 86.96 558.819 85.296 554.147 81.968C549.539 78.576 547.235 73.584 547.235 66.992C547.235 65.136 547.491 62.928 548.003 60.368L556.259 21.2C556.387 20.496 556.739 19.92 557.315 19.472C557.891 19.024 558.531 18.8 559.235 18.8H571.619C572.323 18.8 572.867 19.024 573.251 19.472C573.507 19.856 573.635 20.24 573.635 20.624C573.635 20.816 573.603 21.008 573.539 21.2L565.187 60.272C564.867 61.616 564.707 63.12 564.707 64.784C564.707 67.472 565.443 69.488 566.915 70.832C568.387 72.112 570.659 72.752 573.731 72.752C577.571 72.752 580.707 71.728 583.139 69.68C585.571 67.568 587.235 64.432 588.131 60.272L596.483 21.2C596.611 20.496 596.963 19.92 597.539 19.472C598.115 19.024 598.723 18.8 599.363 18.8H611.747C612.451 18.8 612.995 19.024 613.379 19.472C613.699 19.792 613.859 20.208 613.859 20.72C613.859 20.848 613.827 21.008 613.763 21.2L605.411 60.368C603.427 69.52 599.779 76.24 594.467 80.528C589.219 84.816 581.891 86.96 572.483 86.96ZM570.275 14C569.635 14 569.155 13.776 568.835 13.328C568.579 13.072 568.451 12.72 568.451 12.272C568.451 12.144 568.483 11.984 568.547 11.792L570.371 3.056C570.499 2.416 570.819 1.904 571.331 1.51999C571.843 1.072 572.419 0.847998 573.059 0.847998H581.891C582.531 0.847998 583.011 1.04 583.331 1.424C583.587 1.744 583.715 2.128 583.715 2.576C583.715 2.704 583.683 2.864 583.619 3.056L581.699 11.792C581.571 12.432 581.251 12.976 580.739 13.424C580.227 13.808 579.651 14 579.011 14H570.275ZM592.931 14C592.291 14 591.811 13.776 591.491 13.328C591.299 13.072 591.203 12.752 591.203 12.368C591.203 12.176 591.235 11.984 591.299 11.792L593.123 3.056C593.251 2.416 593.571 1.904 594.083 1.51999C594.595 1.072 595.171 0.847998 595.811 0.847998H604.547C605.187 0.847998 605.667 1.04 605.987 1.424C606.243 1.744 606.371 2.128 606.371 2.576C606.371 2.704 606.339 2.864 606.275 3.056L604.451 11.792C604.323 12.432 604.003 12.976 603.491 13.424C602.979 13.808 602.403 14 601.763 14H592.931Z" fill="#fff"/>
</svg>
