<svg xmlns="http://www.w3.org/2000/svg" opacity=".2" fill="#000" xmlns:xlink="http://www.w3.org/1999/xlink"
     xmlns:fi="http://pattern.flaticon.com/" x="0" y="0" width="700" height="350"
     viewBox="0 0 1633.3333333333335 816.6666666666667">
    <rect x="0px" y="0px" width="100%" height="100%" opacity="0" fill="#ff0600"/>
    <defs>
        <g transform="matrix(0.1171875 0 0 0.1171875 217 10)" id="L1_2">
            <g>
                <path d="m481.02 375.05c0-4.142-3.358-7.5-7.5-7.5s-7.5 3.358-7.5 7.5v41.95h-32.498c-4.142 0-7.5 3.358-7.5 7.5v20c0 6.893-5.607 12.5-12.5 12.5h-20c-4.142 0-7.5 3.358-7.5 7.5v32.5h-225v-32.5c0-4.142-3.358-7.5-7.5-7.5h-20c-6.893 0-12.5-5.607-12.5-12.5v-20c0-4.142-3.358-7.5-7.5-7.5h-32.502v-322h32.502c4.142 0 7.5-3.358 7.5-7.5v-20c0-6.893 5.607-12.5 12.5-12.5h20c4.142 0 7.5-3.358 7.5-7.5v-32.5h151.808c4.142 0 7.5-3.358 7.5-7.5s-3.358-7.5-7.5-7.5h-239.308-.002c-4.142 0-7.5 3.358-7.5 7.5v130.12h-7.542c-16.757 1.576-25.924 10.742-27.5 27.5 0 15.164 12.336 27.5 27.5 27.5h7.542v35.88h-7.542c-16.757 1.576-25.924 10.742-27.5 27.5 0 15.164 12.336 27.5 27.5 27.5h7.542v35.88h-7.542c-16.757 1.576-25.924 10.743-27.5 27.5 0 15.164 12.336 27.5 27.5 27.5h7.542v130.12c0 4.142 3.358 7.5 7.5 7.5h.002 399.998.002c4.142 0 7.5-3.358 7.5-7.5zm-334.998-360.05v25h-12.5c-15.164 0-27.5 12.336-27.5 27.5v12.5h-25v-65zm-87.544 162.62c-6.893 0-12.5-5.607-12.5-12.5.718-7.616 4.885-11.782 12.5-12.5h7.542v25zm0 90.88c-6.893 0-12.5-5.607-12.5-12.5.718-7.616 4.884-11.782 12.5-12.5h7.542v25zm0 90.88c-6.893 0-12.5-5.607-12.5-12.5.718-7.615 4.885-11.782 12.5-12.5h7.542v25zm22.544 137.62v-65h25v12.5c0 15.164 12.336 27.5 27.5 27.5h12.5v25zm320 0v-25h12.5c15.164 0 27.5-12.336 27.5-27.5v-12.5h24.998v65z"/>
                <path d="m473.522 0h-.002-128.01c-4.142 0-7.5 3.358-7.5 7.5s3.358 7.5 7.5 7.5h40.512v32.5c0 4.142 3.358 7.5 7.5 7.5h20c6.893 0 12.5 5.607 12.5 12.5v20c0 4.142 3.358 7.5 7.5 7.5h32.498v247.36c0 4.142 3.358 7.5 7.5 7.5s7.5-3.358 7.5-7.5l.002-334.86c0-4.142-3.358-7.5-7.5-7.5zm-32.5 80v-12.5c0-15.164-12.336-27.5-27.5-27.5h-12.5v-25h64.998v65z"/>
            </g>
            <g>
                <path d="m403.52 226.833h-7.734c-3.324-54.754-42.77-99.915-94.764-111.886v-13.614c-1.576-16.758-10.743-25.924-27.5-27.5-15.164 0-27.5 12.336-27.5 27.5v13.614c-51.993 11.971-91.44 57.132-94.764 111.886h-7.738c-4.142 0-7.5 3.358-7.5 7.5v10c0 20.307 16.917 37.5 37.5 37.5h200c20.678 0 37.5-16.822 37.5-37.5v-10c0-4.142-3.358-7.5-7.5-7.5zm-142.498-125.5c0-6.893 5.607-12.5 12.5-12.5 7.616.718 11.782 4.884 12.5 12.5v11.133c-8.333-.844-16.667-.844-25 0zm134.998 143c0 12.407-10.093 22.5-22.5 22.5h-200c-14.08-1.709-21.58-9.209-22.5-22.5v-2.5h42.15c4.142 0 7.5-3.358 7.5-7.5s-3.358-7.5-7.5-7.5h-26.882c3.864-55.79 50.48-100 107.234-100s103.37 44.21 107.234 100h-154.896c-4.142 0-7.5 3.358-7.5 7.5s3.358 7.5 7.5 7.5h170.16z"/>
                <path d="m347.428 321.083h-147.812c-4.142 0-7.5 3.358-7.5 7.5v56.914c0 4.142 3.358 7.5 7.5 7.5h147.812c4.142 0 7.5-3.358 7.5-7.5v-56.914c0-4.142-3.358-7.5-7.5-7.5zm-7.5 56.914h-132.812v-41.914h132.812z"/>
                <path d="m324.165 428.771h-96.829c-4.142 0-7.5 3.358-7.5 7.5s3.358 7.5 7.5 7.5h96.829c4.142 0 7.5-3.358 7.5-7.5s-3.358-7.5-7.5-7.5z"/>
            </g>
        </g>
        <g transform="matrix(0.1171875 0 0 0.1171875 127 197.00000097274778)" id="L1_4">
            <g>
                <path d="m69.039 122.105 8.224 23.124c.352.99 1.049 1.775 1.929 2.171l20.545 9.256c2.902 1.308 2.902 5.932 0 7.24l-20.545 9.256c-.88.396-1.577 1.181-1.929 2.171l-8.224 23.124c-1.162 3.267-5.271 3.267-6.432 0l-8.224-23.124c-.352-.99-1.049-1.775-1.929-2.171l-20.544-9.256c-2.903-1.308-2.903-5.932 0-7.24l20.544-9.256c.88-.396 1.577-1.181 1.929-2.171l8.224-23.124c1.161-3.267 5.27-3.267 6.432 0z"/>
                <ellipse cx="129px" cy="54px" rx="17px" ry="17px"
                         transform="matrix(0.23 -0.973 0.973 0.23 47.115 168.28)"/>
                <path d="m270.606 63.123c0 4.278-3.468 7.746-7.746 7.746s-7.746-3.468-7.746-7.746 3.468-7.746 7.746-7.746 7.746 3.468 7.746 7.746z"/>
                <path d="m452.099 342.775 6.1 17.153c.261.734.778 1.316 1.431 1.61l15.24 6.866c2.153.97 2.153 4.4 0 5.37l-15.24 6.866c-.653.294-1.17.876-1.431 1.61l-6.1 17.153c-.862 2.423-3.91 2.423-4.771 0l-6.1-17.153c-.261-.734-.778-1.316-1.431-1.61l-15.24-6.866c-2.153-.97-2.153-4.4 0-5.37l15.24-6.866c.652-.294 1.17-.876 1.431-1.61l6.1-17.153c.861-2.423 3.909-2.423 4.771 0z"/>
            </g>
            <g>
                <path d="m506.226 72.676-66.432-66.432c-7.699-7.699-20.225-7.698-27.924 0l-28.363 28.363c-6.536 6.537-7.501 16.545-2.938 24.132l-5.218 5.218c-14.668 14.668-31.813 26.14-50.966 34.101-22.523 8.199-58.103 20.896-64.375 22.481-36.423 9.203-73.19 30.979-103.528 61.316-20.061 20.061-31.687 36.078-42.896 59.098-9.524 19.56-18.182 35.616-29.481 50.404-6.459 8.453-15.108 15.53-25.012 20.464-15.611 7.777-33.269 22.92-47.235 40.508-17.361 21.863-15.465 53.338 4.411 73.213l69.769 69.768c10.708 10.708 24.881 16.219 39.143 16.219 10.826 0 21.705-3.176 31.153-9.667 19.223-13.204 35.542-30.459 43.651-46.157 6.491-12.566 15.257-23.336 26.052-32.009 13.179-10.587 26.894-19.207 43.163-27.129 24.026-11.699 41.266-20.859 61.201-40.793 30.209-30.209 51.946-66.826 61.208-103.108 1.606-6.294 14.485-41.914 22.793-64.441 7.964-19.242 19.468-36.465 34.195-51.192l5.13-5.13c3.043 1.839 6.527 2.841 10.174 2.841 5.274 0 10.233-2.054 13.962-5.783l28.363-28.363c7.698-7.696 7.698-20.222 0-27.922zm-148.019 211.686c-12.493 5.683-26.578 9.207-39.834 9.862-10.237.511-25.141-8.899-39.541-17.995-19.411-12.261-39.391-24.868-57.81-21.987l-52.321-52.321c12.752-4.01 31.322-7.228 53.387-3.246 23.811 4.3 41.374 19.825 56.87 33.522 13.828 12.223 26.889 23.768 42.515 26.007 3.242.464 6.871.685 10.595.685 7.21 0 14.767-.83 20.546-2.322l12.547 12.547c-2.059 5.111-4.389 10.2-6.954 15.248zm-35.031-38.051c-12.066-1.729-23.279-11.64-36.262-23.116-16.675-14.74-35.576-31.446-62.692-36.342-16.609-3.001-31.459-2.293-43.732-.128 19.304-17.246 40.786-30.823 62.651-39.629l99.174 99.173c-6.301.762-13.567.841-19.139.042zm-62.741 132.256c-17.647 8.593-32.562 17.973-46.937 29.521-12.989 10.434-23.52 23.364-31.302 38.429-6.565 12.708-20.818 27.591-37.198 38.842-13.945 9.577-32.787 7.809-44.803-4.207l-69.768-69.768c-12.677-12.677-13.92-32.712-2.889-46.603 12.051-15.176 27.563-28.601 40.483-35.038 12.625-6.289 23.688-15.359 31.994-26.229 12.308-16.108 21.523-33.155 31.573-53.794 7.797-16.012 15.576-27.972 26.993-40.929l25.985 25.984c-2.963 3.998-5.992 8.113-9.099 12.336-29.607 40.245-63.164 85.859-97.331 106.315-2.846 1.704-3.772 5.393-2.068 8.239 1.126 1.88 3.117 2.922 5.16 2.922 1.049 0 2.113-.276 3.08-.854 36.241-21.698 70.559-68.346 100.837-109.504 2.698-3.667 5.37-7.297 8.011-10.866l33.597 33.598-118.322 118.322c-2.346 2.346-2.346 6.149 0 8.495 1.173 1.173 2.71 1.759 4.248 1.759 1.537 0 3.075-.587 4.247-1.759l118.321-118.321 32.426 32.426c-3.846 2.85-7.762 5.734-11.721 8.647-40.627 29.897-86.674 63.782-108.438 100.133-1.704 2.846-.778 6.535 2.068 8.239.966.579 2.03.854 3.08.854 2.043 0 4.034-1.042 5.16-2.922 20.523-34.278 65.536-67.403 105.252-96.628 4.461-3.283 8.87-6.529 13.188-9.735l26.909 26.909c-12.812 10.247-25.616 16.851-42.736 25.187zm55.808-36.95c-1.343 1.343-2.669 2.624-3.986 3.861l-78.755-78.755c11.986 2.661 25.602 11.254 38.913 19.663 16.163 10.209 31.458 19.871 45.152 19.871.467 0 .934-.011 1.397-.034 9.848-.487 20.102-2.405 29.965-5.502-9.035 14.417-20.037 28.247-32.686 40.896zm118.196-218.741c-16.647 16.647-29.639 36.123-38.617 57.888-.048.117-.094.235-.138.353-2.152 5.833-21.092 57.261-23.476 66.599-.757 2.966-1.611 5.935-2.553 8.905l-52.787-52.787 31.593-31.593c2.346-2.346 2.346-6.149 0-8.495-2.344-2.345-6.149-2.345-8.494 0l-31.593 31.593-52.742-52.742c3.095-.981 6.19-1.864 9.281-2.645 9.296-2.349 60.697-21.032 66.527-23.155.136-.049.272-.102.406-.157 21.674-8.975 41.074-21.936 57.662-38.524l4.791-4.791 44.845 44.845zm29.462-8.267-66.04-66.039 27.971-27.971 66.04 66.04z"/>
                <path d="m354.085 133.74c-3.556 0-7-1.899-8.812-5.246-2.634-4.862-.826-10.938 4.036-13.571 2.264-1.226 4.424-2.469 6.419-3.694 4.715-2.892 10.878-1.416 13.77 3.297 2.892 4.712 1.416 10.877-3.297 13.769-2.302 1.412-4.778 2.837-7.358 4.234-1.515.822-3.148 1.211-4.758 1.211z"/>
                <path d="m287.148 159.378c-4.623 0-8.777-3.22-9.78-7.924-1.155-5.407 2.294-10.726 7.7-11.881 14.498-3.094 27.969-8.585 42.232-14.399l1.952-.795c5.125-2.087 10.964.377 13.048 5.497 2.085 5.121-.376 10.963-5.496 13.048l-1.946.792c-14.443 5.887-29.378 11.974-45.61 15.439-.705.151-1.408.223-2.1.223z"/>
            </g>
        </g>
        <path d="m490.152344 240.304688h-17.773438c-1.664062-27.023438-8.246094-53.105469-19.636718-77.625-1.738282-3.753907-6.191407-5.378907-9.945313-3.640626-3.753906 1.742188-5.382813 6.195313-3.640625 9.949219 10.464844 22.535157 16.570312 46.492188 18.210938 71.316407h-343.070313c-4.136719 0-7.488281 3.351562-7.488281 7.488281s3.351562 7.488281 7.488281 7.488281h375.855469c3.789062 0 6.867187 3.082031 6.867187 6.871094v9.140625c0 3.789062-3.078125 6.871093-6.867187 6.871093h-468.304688c-3.789062 0-6.867187-3.082031-6.867187-6.871093v-9.140625c0-3.789063 3.078125-6.871094 6.867187-6.871094h57.539063c4.136719 0 7.492187-3.351562 7.492187-7.488281s-3.355468-7.488281-7.492187-7.488281h-24.753907c3.300782-49.753907 24.636719-96.039063 60.597657-131.046876 34.65625-33.734374 79.4375-53.59375 127.296875-56.742187.027344 0 .054687.003906.082031 0 2.039063-.132813 4.054687-.234375 6.046875-.308594.398438-.011719.792969-.03125 1.191406-.042969.710938-.023437 1.417969-.039062 2.117188-.054687 1.34375-.023437 2.6875-.046875 4.035156-.046875 1.789062 0 3.578125.035156 5.363281.082031.527344.015625 1.050781.03125 1.582031.046875 1.375.046875 2.746094.117188 4.117188.191406.726562.039063 1.453125.078126 2.183594.125 61.488281 4.039063 118.058594 36.015626 153.261718 87.289063 2.339844 3.40625 7.003907 4.277344 10.414063 1.933594 3.410156-2.339844 4.277344-7.003907 1.933594-10.414063-34.640625-50.457031-88.558594-83.503906-148.152344-92.027344 3.734375-5.796874 5.832031-12.621093 5.832031-19.769531 0-4.070312-1.816406-11.574219-13.980468-16.050781-6.074219-2.234375-14.085938-3.46875-22.554688-3.46875-8.472656 0-16.484375 1.234375-22.558594 3.46875-12.164062 4.476562-13.976562 11.980469-13.976562 16.050781 0 7.128907 2.089844 13.941407 5.800781 19.726563-45.246094 6.402344-87.210937 26.886718-120.484375 59.277344-38.871094 37.839843-61.835938 87.949218-65.160156 141.777343h-17.773438c-12.046875.003907-21.847656 9.804688-21.847656 21.851563v9.140625c0 12.050781 9.800781 21.851562 21.847656 21.851562h80.683594c-4.027344 2.757813-7.886719 5.851563-11.5 9.285157l-.148438.140624c-.230468.214844-.449218.445313-.648437.691407l-35.558594 43.179687c-4.460937-2.832031-9.742187-3.863281-14.953125-2.863281-5.433594 1.039063-10.132812 4.132813-13.234375 8.710937l-13.984375 20.621094c-6.394531 9.433594-3.925781 22.320313 5.5 28.722656l95.691406 65.007813c3.46875 2.355469 7.476563 3.582031 11.582032 3.582031 1.304687 0 2.621094-.125 3.933594-.375 5.429687-1.039062 10.128906-4.132812 13.230468-8.710937l13.984375-20.621094c6.394531-9.433594 3.929688-22.320313-5.496093-28.722656l-.546876-.371094c6.660157-7.558594 15.539063-12.976563 25.199219-15.210937 20.355469-4.714844 44.308594-1.679688 60.554688 1.011718 20.097656 3.328125 41.207031 2.191406 61.046875-3.289062l27.578125-7.621094c18.371093-5.078125 35.277343-13.628906 50.253906-25.417969.113281-.089843.222656-.179687.332031-.277343l47.347656-41.933594c8.070313-6.175782 9.828126-16.871094 7.042969-25.539063h60.414063c12.046875 0 21.847656-9.800781 21.847656-21.847656v-9.144531c0-12.046875-9.800781-21.847656-21.847656-21.847656zm-234.152344-225.324219c12.613281 0 20.171875 3.121093 21.554688 4.855469-.101563 7.105468-3.695313 13.660156-9.542969 17.589843-1.472657-.078125-2.925781-.140625-4.375-.195312-.488281-.015625-.976563-.039063-1.464844-.050781-2.089844-.0625-4.152344-.09375-6.171875-.09375-1.433594 0-2.894531.019531-4.367188.050781-.710937.011719-1.425781.03125-2.140624.054687-.851563.027344-1.710938.054688-2.570313.089844-.980469.042969-1.960937.085938-2.9375.140625-5.847656-3.929687-9.4375-10.484375-9.539063-17.585937 1.382813-1.734376 8.941407-4.855469 21.554688-4.855469zm53.710938 281.777343c-.558594-1.265624-1.226563-2.46875-1.980469-3.613281h71.839843l-31.0625 20.558594-44.277343 12.808594-1.503907.035156c8.523438-7.105469 11.632813-19.238281 6.984376-29.789063zm-81.21875-3.613281-10.808594 2.253907-8.355469-2.253907zm-84.464844 138.964844-13.980469 20.621094c-.855469 1.265625-2.152344 2.117187-3.652344 2.40625-1.496093.285156-3.019531-.027344-4.28125-.886719l-95.691406-65.007812c-2.601563-1.765626-3.28125-5.320313-1.515625-7.921876l13.984375-20.625c.855469-1.261718 2.148437-2.117187 3.648437-2.402343.363282-.070313.726563-.105469 1.085938-.105469 1.132812 0 2.238281.339844 3.195312.992188l5.167969 3.507812c0 .003906.003907.003906.003907.003906l90.519531 61.492188c2.601562 1.765625 3.28125 5.324218 1.515625 7.925781zm269.476562-125.253906c-.179687.128906-.351562.269531-.519531.417969l-47.398437 41.984374c-13.363282 10.480469-28.441407 18.089844-44.8125 22.613282l-27.578126 7.621094c-17.757812 4.910156-36.640624 5.929687-54.605468 2.953124-17.507813-2.898437-43.429688-6.144531-66.386719-.828124-13.296875 3.078124-25.4375 10.71875-34.269531 21.34375l-70.792969-48.089844 34.359375-41.726563c12.996094-12.269531 29.476562-19.554687 45.257812-20h.304688c4.894531-.082031 10.074219 1.359375 15.554688 2.894531 1.101562.304688 2.199218.613282 3.300781.910157l49.59375 13.378906c1.136719.304687 2.328125.339844 3.480469.097656l64.953124-13.542969c2.945313-.609374 6.039063-.011718 8.488282 1.648438 1.582031 1.074219 2.816406 2.550781 3.570312 4.265625 2.226563 5.050781.128906 10.980469-4.847656 13.542969l-22.160156 11.734375c-3.066406 1.625-4.613282 5.140625-3.742188 8.5.875 3.363281 3.933594 5.652343 7.410156 5.605469l32.871094-.710938c.652344-.015625 1.296875-.113281 1.917969-.292969l46.316406-13.398437c.730469-.210938 1.421875-.53125 2.054688-.949219l46.726562-30.929687c3.921875-2.421876 9.140625-4.414063 11.917969-.316407 2.164062 3.1875 2.214844 8.925781-.964844 11.273438zm0 0"
              transform="matrix(0.1171875 0 0 0.1171875 311.00000002929687 216.00000002929687)" id="L1_5"/>
        <g transform="matrix(0.125 0 0 0.125 87 91.99999964904782)" id="L1_6">
            <path d="M240,80c-88.366,0-160,71.634-160,160s71.634,160,160,160s160-71.634,160-160C399.899,151.676,328.324,80.101,240,80z     M240,384c-79.529,0-144-64.471-144-144S160.471,96,240,96s144,64.471,144,144C383.907,319.491,319.491,383.907,240,384z"/>
            <path d="M467.864,49.52c-7.338-3.058-15.797-1.376-21.408,4.256C426.891,73.241,415.925,99.722,416,127.32V232    c0.042,10.134,6.445,19.15,16,22.528V408c0,13.255,10.745,24,24,24s24-10.745,24-24V67.672    C480.016,59.718,475.22,52.545,467.864,49.52z M464,408c0,4.418-3.582,8-8,8s-8-3.582-8-8V256h16V408z M464,240h-24    c-4.418,0-8-3.582-8-8V127.32c-0.06-23.351,9.221-45.756,25.776-62.224c0.645-0.69,1.544-1.086,2.488-1.096    c0.512,0.006,1.017,0.112,1.488,0.312c1.393,0.526,2.296,1.88,2.248,3.368V240z"/>
            <path d="M176,184c-17.673,0-32,14.327-32,32s14.327,32,32,32s32-14.327,32-32S193.673,184,176,184z M176,232    c-8.837,0-16-7.163-16-16s7.163-16,16-16s16,7.163,16,16S184.837,232,176,232z"/>
            <path d="M240.688,189.376l-14.064-14.064c-1.688-1.679-2.633-3.964-2.624-6.344c-0.018-13.782-11.186-24.95-24.968-24.968h-32    c-6.619,0.017-12.963,2.644-17.656,7.312l-30.064,30.064c-4.698,4.672-7.331,11.03-7.312,17.656v33.936    c-0.019,6.626,2.614,12.984,7.312,17.656l14.064,14.064c1.688,1.679,2.633,3.964,2.624,6.344    c0.018,13.782,11.186,24.95,24.968,24.968h16c6.619-0.017,12.963-2.645,17.656-7.312l22.064-22.064    c1.688-1.674,3.967-2.617,6.344-2.624c13.782-0.018,24.95-11.186,24.968-24.968v-32    C248.019,200.406,245.386,194.048,240.688,189.376z M232,239.032c-0.004,4.951-4.017,8.964-8.968,8.968    c-6.619,0.017-12.963,2.644-17.656,7.312l-22.064,22.064c-1.688,1.674-3.967,2.617-6.344,2.624h-16    c-4.951-0.004-8.964-4.017-8.968-8.968c0.019-6.626-2.614-12.984-7.312-17.656l-14.064-14.064    c-1.688-1.679-2.633-3.964-2.624-6.344v-33.936c-0.008-2.38,0.936-4.665,2.624-6.344l30.064-30.064    c1.688-1.674,3.967-2.617,6.344-2.624h32c4.951,0.004,8.964,4.017,8.968,8.968c-0.019,6.626,2.614,12.984,7.312,17.656    l14.064,14.064c1.688,1.679,2.633,3.964,2.624,6.344V239.032z"/>
            <path d="M317.656,258.344l-32-32c-3.125-3.124-8.19-3.123-11.314,0.002c-1.499,1.5-2.342,3.534-2.342,5.654v16    c0,4.418-3.582,8-8,8c-13.255,0-24,10.745-24,24c0,4.418-3.582,8-8,8c-13.255,0-24,10.745-24,24c0,4.418-3.582,8-8,8h-16    c-4.418,0.001-7.999,3.583-7.998,8.002c0,2.121,0.843,4.154,2.342,5.654l32,32c1.5,1.5,3.534,2.344,5.656,2.344h16    c13.255,0,24-10.745,24-24c0-4.418,3.582-8,8-8c13.255,0,24-10.745,24-24c0-4.418,3.582-8,8-8c13.255,0,24-10.745,24-24v-16    C320,261.878,319.156,259.844,317.656,258.344z M304,280c0,4.418-3.582,8-8,8c-13.255,0-24,10.745-24,24c0,4.418-3.582,8-8,8    c-13.255,0-24,10.745-24,24c0,4.418-3.582,8-8,8h-12.688l-16.2-16.2c11.951-1.563,20.889-11.747,20.888-23.8c0-4.418,3.582-8,8-8    c13.255,0,24-10.745,24-24c0-4.418,3.582-8,8-8c12.053,0.001,22.237-8.937,23.8-20.888l16.2,16.2V280z"/>
            <path d="M359.032,195.712l-1.376-1.368l-40-40l-33.376-33.368c-11.963-11.958-31.354-11.955-43.312,0.008    c-11.958,11.962-11.954,31.354,0.008,43.312l1.376,1.368l40,40l33.376,33.368c11.963,11.958,31.354,11.954,43.312-0.008    C370.998,227.061,370.995,207.67,359.032,195.712z M253.264,131.392c2.619-2.183,5.919-3.383,9.328-3.392h0.032    c3.876,0.012,7.592,1.55,10.344,4.28l19.72,19.72h-41.296C246.218,145.792,247.056,136.566,253.264,131.392z M267.312,168h41.376    l24,24h-41.376L267.312,168z M346.736,228.608c-2.619,2.183-5.919,3.383-9.328,3.392h-0.032    c-3.878-0.013-7.594-1.553-10.344-4.288L307.312,208h41.296C353.782,214.208,352.944,223.434,346.736,228.608z"/>
            <path d="M64,48v64H48V48H32v64H16V48H0v104c0.039,12.523,5.965,24.299,16,31.792V408c0,13.255,10.745,24,24,24s24-10.745,24-24    V183.792c10.035-7.493,15.961-19.269,16-31.792V48H64z M48,408c0,4.418-3.582,8-8,8s-8-3.582-8-8V192h16V408z M64,152    c0,13.255-10.745,24-24,24s-24-10.745-24-24v-24h48V152z"/>
        </g>
        <g transform="matrix(0.9375 0 0 0.9375 38.999999384880084 -27)" id="L1_8">
            <path d="m59.091 50h-56.091c-.552 0-1 .448-1 1v4c0 3.86 3.14 7 7 7h30c3.86 0 7-3.14 7-7v-3h3.13c.416 1.756 1.891 3.097 3.768 3.268l5.93.539c.087.008.175.012.262.012.722 0 1.425-.27 1.962-.76.602-.551.948-1.334.948-2.15 0-1.604-1.305-2.909-2.909-2.909zm-15.091 5c0 2.757-2.243 5-5 5h-30c-2.757 0-5-2.243-5-5v-3h40zm15.704-1.419c-.19.174-.435.26-.695.233l-5.93-.539c-.829-.075-1.514-.575-1.852-1.275h7.864c.501 0 .909.408.909.909 0 .259-.105.498-.296.672z"/>
            <path d="m11 16c.792 0 1.471-.12 2.049-.309l-.998 2.992c-.102.305-.05.64.138.901.188.262.49.416.811.416h10c.321 0 .623-.154.811-.416.188-.261.239-.596.138-.901l-.998-2.992c.578.189 1.257.309 2.049.309 2.405 0 5-2.294 5-6 0-3.853-3.755-8-12-8s-12 4.147-12 8c0 3.706 2.595 6 5 6zm7-12c7.91 0 10 3.925 10 6 0 2.471-1.557 4-3 4-2.298 0-3.08-1.401-3.105-1.447-.235-.47-.792-.678-1.277-.477s-.732.742-.566 1.24l1.561 4.684h-7.226l1.562-4.684c.164-.492-.08-1.021-.556-1.227-.476-.207-1.035-.006-1.281.45-.032.06-.814 1.461-3.112 1.461-1.443 0-3-1.529-3-4 0-2.075 2.09-6 10-6z"/>
            <path d="m32.586 30.099-4.243 4.244c-1.511 1.511-2.343 3.52-2.343 5.657s.832 4.146 2.343 5.657 3.52 2.343 5.657 2.343 4.146-.832 5.657-2.343l9.899-9.899c3.899-3.899 3.899-10.243 0-14.142s-10.244-3.898-14.142 0c-2.235 2.234-3.271 5.371-2.828 8.483zm2.054.149c-.52-2.629.298-5.328 2.188-7.218 3.12-3.119 8.194-3.119 11.314 0 3.119 3.119 3.119 8.195 0 11.314l-9.899 9.899c-1.134 1.133-2.64 1.757-4.243 1.757s-3.109-.624-4.243-1.757-1.757-2.64-1.757-4.243.624-3.109 1.757-4.243l4.608-4.609c.237-.235.34-.573.275-.9z"/>
            <path d="m43.192 29.565c.801 0 1.555-.312 2.121-.878.567-.567.879-1.32.879-2.122s-.312-1.555-.878-2.121 0 0 0 0c-1.133-1.133-3.109-1.133-4.242 0-.567.567-.879 1.32-.879 2.122s.312 1.555.878 2.121c.567.566 1.32.878 2.121.878zm-.706-3.707c.188-.189.439-.293.707-.293s.518.104.707.293c.189.188.293.439.293.707s-.104.518-.293.707c-.377.378-1.036.378-1.414 0-.189-.188-.293-.439-.293-.707s.103-.518.293-.707z"/>
            <path d="m46 4v-2c-5.514 0-10 4.486-10 10h2c0-4.411 3.589-8 8-8z"/>
            <path d="m7 23h2c0-3.309-2.691-6-6-6v2c2.206 0 4 1.794 4 4z"/>
            <path d="m26 26h2c0-2.757 2.243-5 5-5v-2c-3.86 0-7 3.14-7 7z"/>
            <path d="m48 2h2v2h-2z"/>
            <path d="m42 46h2v2h-2z"/>
            <path d="m3.464 43.878c.944.945 2.2 1.465 3.536 1.465s2.591-.52 3.536-1.465c.203-.203.388-.431.562-.689.973-.108 1.872-.509 2.624-1.136l3.82 4.587c.18.216.442.346.723.359.015.001.03.001.045.001.265 0 .519-.105.707-.293l5.66-5.66c.199-.199.305-.472.292-.752-.013-.281-.143-.543-.358-.723l-4.584-3.825c.625-.752 1.026-1.65 1.132-2.62.259-.173.487-.359.69-.562 1.95-1.949 1.95-5.122 0-7.071-.944-.945-2.2-1.465-3.536-1.465-1.024 0-2.002.306-2.828.875-.826-.569-1.804-.875-2.829-.875-1.335 0-2.591.52-3.535 1.464-.202.202-.388.43-.562.69-1.124.124-2.164.621-2.974 1.432-.811.811-1.308 1.851-1.432 2.974-.26.173-.488.359-.69.562-1.729 1.728-1.924 4.417-.588 6.364-1.335 1.946-1.139 4.635.589 6.363zm14.913.641-3.382-4.062c.443-.897.617-1.918.475-2.927l.03-.03c1.013.143 2.036-.033 2.934-.478l4.056 3.385zm-13.499-7.711c-1.169-1.17-1.169-3.073 0-4.243.184-.184.412-.346.717-.509.327-.175.531-.517.528-.888-.004-.809.307-1.568.877-2.139.566-.565 1.318-.876 2.122-.876h.023c.369 0 .708-.203.882-.528.163-.305.325-.532.509-.716 1.134-1.134 3.109-1.134 4.243 0 .375.375 1.039.375 1.414 0 1.134-1.134 3.109-1.134 4.243 0 1.169 1.17 1.169 3.073 0 4.243-.185.185-.412.346-.715.508-.328.175-.532.517-.53.889.005.81-.306 1.569-.876 2.139-.756.755-1.839 1.038-2.888.762-.346-.091-.711.008-.962.259l-.785.784c-.252.252-.351.619-.26.963.278 1.053-.007 2.132-.762 2.888-.566.565-1.318.876-2.122.876-.008 0-.016-.001-.023 0-.369 0-.708.203-.882.529-.162.303-.323.531-.508.715-1.17 1.17-3.073 1.17-4.243 0-1.169-1.17-1.169-3.073 0-4.243.389-.39.389-1.023-.002-1.413z"/>
        </g>
    </defs>
    <g fi:class="KUsePattern">
        <pattern id="pattern_L1_2" width="350" height="350" patternUnits="userSpaceOnUse">
            <use xlink:href="#L1_2" x="-350" y="-350"/>
            <use xlink:href="#L1_2" x="0" y="-350"/>
            <use xlink:href="#L1_2" x="350" y="-350"/>
            <use xlink:href="#L1_2" x="-350" y="0"/>
            <use xlink:href="#L1_2" x="0" y="0"/>
            <use xlink:href="#L1_2" x="350" y="0"/>
            <use xlink:href="#L1_2" x="-350" y="350"/>
            <use xlink:href="#L1_2" x="0" y="350"/>
            <use xlink:href="#L1_2" x="350" y="350"/>
        </pattern>
        <rect x="0" y="0" width="100%" height="100%" fill="url(#pattern_L1_2)"/>
    </g>
    <g fi:class="KUsePattern">
        <pattern id="pattern_L1_4" width="350" height="350" patternUnits="userSpaceOnUse">
            <use xlink:href="#L1_4" x="-350" y="-350"/>
            <use xlink:href="#L1_4" x="0" y="-350"/>
            <use xlink:href="#L1_4" x="350" y="-350"/>
            <use xlink:href="#L1_4" x="-350" y="0"/>
            <use xlink:href="#L1_4" x="0" y="0"/>
            <use xlink:href="#L1_4" x="350" y="0"/>
            <use xlink:href="#L1_4" x="-350" y="350"/>
            <use xlink:href="#L1_4" x="0" y="350"/>
            <use xlink:href="#L1_4" x="350" y="350"/>
        </pattern>
        <rect x="0" y="0" width="100%" height="100%" fill="url(#pattern_L1_4)"/>
    </g>
    <g fi:class="KUsePattern">
        <pattern id="pattern_L1_5" width="350" height="350" patternUnits="userSpaceOnUse">
            <use xlink:href="#L1_5" x="-350" y="-350"/>
            <use xlink:href="#L1_5" x="0" y="-350"/>
            <use xlink:href="#L1_5" x="350" y="-350"/>
            <use xlink:href="#L1_5" x="-350" y="0"/>
            <use xlink:href="#L1_5" x="0" y="0"/>
            <use xlink:href="#L1_5" x="350" y="0"/>
            <use xlink:href="#L1_5" x="-350" y="350"/>
            <use xlink:href="#L1_5" x="0" y="350"/>
            <use xlink:href="#L1_5" x="350" y="350"/>
        </pattern>
        <rect x="0" y="0" width="100%" height="100%" fill="url(#pattern_L1_5)"/>
    </g>
    <g fi:class="KUsePattern">
        <pattern id="pattern_L1_6" width="350" height="350" patternUnits="userSpaceOnUse">
            <use xlink:href="#L1_6" x="-350" y="-350"/>
            <use xlink:href="#L1_6" x="0" y="-350"/>
            <use xlink:href="#L1_6" x="350" y="-350"/>
            <use xlink:href="#L1_6" x="-350" y="0"/>
            <use xlink:href="#L1_6" x="0" y="0"/>
            <use xlink:href="#L1_6" x="350" y="0"/>
            <use xlink:href="#L1_6" x="-350" y="350"/>
            <use xlink:href="#L1_6" x="0" y="350"/>
            <use xlink:href="#L1_6" x="350" y="350"/>
        </pattern>
        <rect x="0" y="0" width="100%" height="100%" fill="url(#pattern_L1_6)"/>
    </g>
    <g fi:class="KUsePattern">
        <pattern id="pattern_L1_8" width="350" height="350" patternUnits="userSpaceOnUse">
            <use xlink:href="#L1_8" x="-350" y="-350"/>
            <use xlink:href="#L1_8" x="0" y="-350"/>
            <use xlink:href="#L1_8" x="350" y="-350"/>
            <use xlink:href="#L1_8" x="-350" y="0"/>
            <use xlink:href="#L1_8" x="0" y="0"/>
            <use xlink:href="#L1_8" x="350" y="0"/>
            <use xlink:href="#L1_8" x="-350" y="350"/>
            <use xlink:href="#L1_8" x="0" y="350"/>
            <use xlink:href="#L1_8" x="350" y="350"/>
        </pattern>
        <rect x="0" y="0" width="100%" height="100%" fill="url(#pattern_L1_8)"/>
    </g>
</svg>