<svg id="Group_334" data-name="Group 334" xmlns="http://www.w3.org/2000/svg" viewBox="0 0 1917.65 1076.2">
    <defs>
        <style>.cls-1{fill:#525F7F;opacity:0.2;isolation:isolate;}</style>
    </defs>
    <title>hero-waves</title>
    <path id="Path_1368" data-name="Path 1368" class="cls-1"
          d="M1,968.6c19.25,8.58,38.36,18,51.71,32.95a76.56,76.56,0,0,1,17.4,31.16c3.85,14,3.41,27.62,2.94,42.06,0,.47,0,1,0,1.42H70.57c0-.5,0-1,.05-1.5.46-14.25.9-27.71-2.86-41.33a74.32,74.32,0,0,0-16.87-30.19C38.09,988.85,19.67,979.62,1,971.26Z"
          transform="translate(-1 0)"/>
    <path id="Path_1369" data-name="Path 1369" class="cls-1"
          d="M1,941.92c7.78,3.82,16,7.31,24.64,10.9,21.13,8.8,43,17.9,58.09,33.47a76.65,76.65,0,0,1,18,28.61c4.49,12.93,4.93,25.58,5.41,39,.25,7.33.56,14.76,1.55,22.32h-2.49c-1-7.54-1.24-14.94-1.5-22.24-.46-13.21-.9-25.68-5.27-38.26A74.52,74.52,0,0,0,82,988C67.22,972.77,45.6,963.77,24.7,955.07c-7.94-3.31-16-6.73-23.7-10.45Z"
          transform="translate(-1 0)"/>
    <path id="Path_1370" data-name="Path 1370" class="cls-1"
          d="M1,912.57,8.83,917l12.53,7.13c10.92,6.23,23.26,11.07,36.32,16.19,20.59,8.07,41.89,16.42,57.06,30.7a78,78,0,0,1,18.69,26.07c5.15,11.86,6.51,23.54,7.94,35.9,1.62,14,3.29,28.33,10.9,43.21H149.6c-7.33-14.84-9-29.09-10.65-42.93-1.41-12.18-2.74-23.68-7.75-35.21a75.67,75.67,0,0,0-18.13-25.27c-14.82-13.95-35.9-22.22-56.28-30.2-12.56-4.93-25.56-10-36.64-16.34L7.62,919.13,1,915.38Z"
          transform="translate(-1 0)"/>
    <path id="Path_1371" data-name="Path 1371" class="cls-1"
          d="M1,885q26.37,14,53.24,28.1C65,918.75,77,923.16,89.71,927.82c20.06,7.35,40.8,14.95,56,27.92a81.06,81.06,0,0,1,19.32,23.52c5.83,10.81,8.12,21.52,10.55,32.85,3.07,14.35,6.24,29.18,17.23,44.57A106.78,106.78,0,0,0,211,1076.19h-3.77a108.79,108.79,0,0,1-16.4-18.1c-11.27-15.8-14.51-30.89-17.63-45.47-2.39-11.16-4.64-21.7-10.3-32.21a78.65,78.65,0,0,0-18.76-22.81c-14.91-12.69-35.44-20.22-55.29-27.5C76.64,925.61,64,921,53.1,915.23Q26.82,901.46,1,887.73Z"
          transform="translate(-1 0)"/>
    <path id="Path_1372" data-name="Path 1372" class="cls-1"
          d="M1,860l13.48,6.61q8.3,4,16.53,8.11C52.41,885.27,70.23,894,87.11,902c10.57,5.12,22.27,9.09,34.65,13.3,19.5,6.63,39.68,13.48,55,25.15a87.09,87.09,0,0,1,20,20.94c6.53,9.77,9.8,19.52,13.25,29.84,4.27,12.73,8.68,25.9,19.81,39.49,18.86,23,50.19,40.07,79.81,43.37,3.4.38,7.41.8,11.32,1.05,28.21,1.78,50.83-.89,72.7-3.48,32.23-3.81,63-7.38,106.72,4.5h-10c-38.43-8.88-66.83-5.58-96.46-2.08-6.13.72-12.33,1.45-18.68,2.08H306.82c-29.87-4-59.93-20.67-78.94-43.9C216.47,1018.35,212,1005,207.65,992c-3.4-10.16-6.62-19.76-13-29.25a84.77,84.77,0,0,0-19.4-20.37c-15-11.43-35-18.21-54.3-24.78-11.91-4-24.23-8.23-34.93-13.4-16.88-8.09-34.71-16.78-56.12-27.34q-8.22-4-16.53-8.11-6.18-3-12.4-6.08Z"
          transform="translate(-1 0)"/>
    <path id="Path_1373" data-name="Path 1373" class="cls-1"
          d="M1,836.52c17.52,8.93,35.47,17.09,53.12,25.09L65,866.53c16.8,7.66,34.8,15.65,55,24.46,10.34,4.5,21.64,8,33.61,11.76,19,5.93,38.69,12.07,54.15,22.46a96,96,0,0,1,20.57,18.38c7.3,8.74,11.6,17.55,16.16,26.87,5.42,11.09,11,22.56,22.21,34.36,19.63,20.69,49.67,36.26,78.41,40.61,3.38.52,7.22,1.1,10.86,1.5,27,3.07,48.84,3,69.92,2.84,36.79-.2,71.58-.39,127.81,16.66,10.59,3.21,20.8,6.54,30.68,9.76h-7.89c-7.65-2.48-15.44-5-23.49-7.43-55.88-16.94-90.47-16.76-127.1-16.56-21.16.11-43,.23-70.21-2.85-3.68-.42-7.54-1-10.95-1.51-29.25-4.44-59.83-20.28-79.81-41.35-11.44-12.07-17.13-23.7-22.63-35-4.49-9.2-8.73-17.88-15.84-26.39a93.73,93.73,0,0,0-20.06-17.91C191.22,917,171.72,911,152.86,905.07c-11.5-3.59-23.4-7.3-33.86-11.85-20.23-8.8-38.24-16.82-55-24.47l-10.84-4.93C35.81,856,18.21,848,1,839.26Z"
          transform="translate(-1 0)"/>
    <path id="Path_1375" data-name="Path 1375" class="cls-1"
          d="M841.23,1055.4a229.55,229.55,0,0,1,94.54-13.75c42.53,2.65,70.4,17.87,99,34.54h-4.85c-27.11-15.67-54.14-29.61-94.32-32.11a227.36,227.36,0,0,0-93.55,13.61c-12.72,4.66-25.53,10.15-37.92,15.46l-7.11,3h-6.25c4.11-1.73,8.23-3.49,12.4-5.28C815.6,1065.59,828.44,1060.09,841.23,1055.4Z"
          transform="translate(-1 0)"/>
    <path id="Path_1376" data-name="Path 1376" class="cls-1"
          d="M1,810.94c28.08,18.38,59.92,31.65,90.83,44.48l7.08,2.93c16,6.65,33.62,13.71,53.93,21.59,10.17,3.94,21.14,7,32.76,10.32,18.47,5.23,37.56,10.63,53.13,19.68a112.23,112.23,0,0,1,21.18,15.81c8.14,7.73,13.6,15.64,19.36,24,6.48,9.42,13.2,19.16,24.31,29.12,20.34,18.26,49.13,32.41,77,37.87l1.4.28c3.06.6,6.05,1.19,9,1.68,27.07,4.57,48.87,7.11,70,9.57,34.48,4,67.05,7.83,119.3,19.74l3.55.82c59.59,13.6,106.66,24.33,167.78,8.29,20.91-5.53,41.68-15.13,63.67-25.3,13.61-6.3,27.68-12.8,41.78-18.24,30.23-11.57,60.05-16.4,91.18-14.73,45.61,2.42,71.75,20.5,99.43,39.63,16.64,11.51,33.85,23.41,56.08,32.23a116.94,116.94,0,0,0,15.07,4.83c1,.25,2,.43,3,.65h-9.67c-3.08-.94-6.19-2-9.33-3.22-22.49-8.92-39.82-20.9-56.57-32.49-27.39-18.93-53.25-36.82-98.17-39.21-30.78-1.65-60.28,3.13-90.18,14.58-14,5.41-28.06,11.9-41.63,18.17-22.09,10.22-43,19.87-64.08,25.45-61.71,16.2-109,5.4-168.94-8.27l-3.55-.81c-52.12-11.88-84.63-15.68-119-19.7-21.12-2.47-43-5-70.07-9.59-3-.5-6-1.09-9.07-1.7l-1.4-.28c-28.29-5.53-57.51-19.9-78.17-38.43-11.32-10.16-18.11-20-24.69-29.56-5.69-8.26-11.06-16.06-19-23.62A109.92,109.92,0,0,0,237.5,912c-15.3-8.9-34.24-14.26-52.57-19.43-11.15-3.16-22.7-6.42-33-10.4-20.33-7.89-38-15-54-21.62l-7.06-2.93C60.36,845,28.92,831.92,1,813.88Z"
          transform="translate(-1 0)"/>
    <path id="Path_1377" data-name="Path 1377" class="cls-1"
          d="M1918.64,1030.76c-4.5,1.22-9,2.56-13.37,4.07a188.07,188.07,0,0,0-68.59,41.36h-3.46a190.25,190.25,0,0,1,71.26-43.67c4.65-1.6,9.39-3,14.16-4.28Z"
          transform="translate(-1 0)"/>
    <path id="Path_1378" data-name="Path 1378" class="cls-1"
          d="M1,774a229.31,229.31,0,0,0,27.92,25.77c29.25,22.5,65.11,35.91,99.78,48.88l4.15,1.55c15.41,5.77,32.7,11.9,52.85,18.72,10,3.39,20.67,6.08,32,8.92,17.88,4.51,36.38,9.17,52,16.86a140.12,140.12,0,0,1,21.78,13.24c9.21,6.8,16,13.85,23.17,21.32,7.37,7.68,15,15.61,25.81,23.71,20.93,15.69,48.51,28.49,75.65,35.12l3.36.83c2.23.55,4.42,1.1,6.58,1.59,19.53,4.49,36,8.64,52,12.65,38.3,9.63,71.38,17.94,128.77,26.48,58.12,8.63,106.15,9.72,165.88-11.53,17.5-6.26,35-15.06,53.49-24.37,15.15-7.62,30.82-15.51,46.65-22,29.38-11.87,58.1-17,87.83-15.71,46.37,2,70,21.47,95,42.06,14.78,12.16,30.06,24.74,50.82,34.2a99,99,0,0,0,14.3,5.24c21.66,6,43.25,6.72,62.3,7.34s36.78,1.21,51.41,6.83c12.27,4.72,23.64,9.6,35.67,14.77,7.46,3.2,15,6.43,22.92,9.71h-6.33c-6-2.52-11.79-5-17.55-7.48-12-5.15-23.36-10-35.59-14.72-14.24-5.47-31.91-6.06-50.62-6.67-19.18-.63-40.91-1.35-62.86-7.43a100.47,100.47,0,0,1-14.66-5.37c-21-9.6-36.45-22.28-51.36-34.54-24.68-20.32-48-39.51-93.57-41.51-29.38-1.3-57.76,3.8-86.8,15.54-15.74,6.41-31.37,14.28-46.47,21.88-18.58,9.34-36.13,18.17-53.77,24.48C713.3,1041.8,665,1040.71,606.45,1032c-57.51-8.54-90.64-16.87-129-26.52-15.95-4-32.44-8.15-51.94-12.63-2.18-.5-4.38-1.05-6.62-1.6l-3.35-.83c-27.45-6.7-55.35-19.66-76.54-35.54-11-8.21-18.65-16.22-26.1-24-7.11-7.39-13.82-14.37-22.86-21a138.25,138.25,0,0,0-21.4-13c-15.44-7.58-33.8-12.2-51.57-16.68-10.84-2.73-22-5.55-32.14-9-20.18-6.84-37.49-13-52.93-18.76l-4.15-1.55C93,837.88,57,824.4,27.44,801.68A229.9,229.9,0,0,1,1,777.53Z"
          transform="translate(-1 0)"/>
    <path id="Path_1379" data-name="Path 1379" class="cls-1"
          d="M1918.64,1014.1c-12.71,1.92-25.53,4.21-37.82,7.89-31.44,9.42-61.18,28.52-84.76,54.2h-3.31c24.1-26.84,54.84-46.79,87.37-56.53,12.56-3.77,25.61-6.08,38.52-8Z"
          transform="translate(-1 0)"/>
    <path id="Path_1380" data-name="Path 1380" class="cls-1"
          d="M1603.53,1070.32a108.55,108.55,0,0,1,16.21,5.87h-6.25a104.44,104.44,0,0,0-10.6-3.52c-28.77-7.85-50.61-3.36-72.09,3.52H1523C1547.2,1068,1570.94,1061.44,1603.53,1070.32Z"
          transform="translate(-1 0)"/>
    <path id="Path_1381" data-name="Path 1381" class="cls-1"
          d="M1,719.65a141.58,141.58,0,0,1,10.25,10.54c5.4,6.13,10.62,13.31,16.16,20.92,3.21,4.41,6.54,9,10,13.39C47,777,56.14,786.63,66.13,794.88c28.09,23.11,64.06,35,98.84,46.51l1.81.6c14.87,4.92,31.8,10.1,51.78,15.86,9.87,2.84,20.25,5.13,31.24,7.54,17.27,3.79,35.13,7.72,50.87,14A192.75,192.75,0,0,1,323,890.1c10.73,6,19.29,12.3,28.35,19,7.83,5.8,15.93,11.78,25.95,17.9,21.13,12.9,47.52,24.39,74.29,32.37q2.47.74,4.91,1.49l4.57,1.39c20.56,6.13,37.81,13,54.5,19.58,33.73,13.37,65.6,26,117.74,29.36,56.62,3.66,103.11-5.66,160.45-32.15,13.58-6.3,27.18-13.84,41.58-21.83,17.22-9.56,35-19.43,53.25-27.29,28.5-12.2,56.13-17.64,84.47-16.69,47,1.6,68.05,22.38,90.29,44.37,13,12.86,26.46,26.16,45.87,36.29a83.44,83.44,0,0,0,13.53,5.64c18.46,5.83,37,7.09,54.87,8.31,20.19,1.37,39.26,2.67,54.34,10.79,11.25,6.06,21.52,12.4,32.38,19.11,21,13,42.64,26.31,73,38.44h-6.41c-27.65-11.59-48-24.15-67.82-36.37-10.84-6.69-21.08-13-32.26-19-14.62-7.87-33.43-9.14-53.36-10.5-18-1.23-36.7-2.5-55.43-8.41a87.09,87.09,0,0,1-13.93-5.8c-19.73-10.3-33.31-23.74-46.45-36.72-21.9-21.65-42.58-42.1-88.66-43.68-28-1-55.26,4.44-83.42,16.5-18.12,7.81-35.87,17.66-53,27.18-14.45,8-28.09,15.58-41.75,21.92-57.74,26.67-104.55,36-161.62,32.36-52.53-3.39-84.57-16.09-118.49-29.53-16.64-6.6-33.84-13.41-54.29-19.5-1.52-.45-3.05-.92-4.6-1.4s-3.24-1-4.89-1.48c-27-8-53.55-19.63-74.86-32.63-10.11-6.17-18.26-12.2-26.13-18-9-6.66-17.5-13-28.09-18.84a188.81,188.81,0,0,0-22.09-10.57c-15.55-6.22-33.31-10.12-50.48-13.89-11-2.43-21.44-4.72-31.4-7.58-20-5.77-37-11-51.87-15.89l-1.8-.6c-35-11.58-71.19-23.56-99.63-47-10.13-8.37-19.4-18.14-29.15-30.77-3.43-4.45-6.76-9-10-13.45-5.5-7.56-10.7-14.7-16-20.74C6.54,728.51,3.74,725.62,1,723Z"
          transform="translate(-1 0)"/>
    <path id="Path_1382" data-name="Path 1382" class="cls-1"
          d="M1918.64,1000.79c-5.13.56-10.25,1.05-15.29,1.52-15.57,1.45-31.67,3-47,6.85-32,8.16-62.82,26.92-91.57,55.79-2.82,2.83-5.54,5.7-8.24,8.53l-2.59,2.72h-3.37l4.19-4.39c2.72-2.86,5.45-5.74,8.28-8.58,29.08-29.18,60.26-48.17,92.7-56.43,15.5-3.95,31.7-5.46,47.36-6.92,5.12-.48,10.32-1,15.52-1.55Z"
          transform="translate(-1 0)"/>
    <path id="Path_1383" data-name="Path 1383" class="cls-1"
          d="M1,662.09l6,5.26c10.64,9.38,19.84,17.47,28.61,27.64a215.91,215.91,0,0,1,20,27.44c3.1,5,6.13,10.21,9.32,15.77,3.94,6.86,8,14,12.45,20.78,8.1,12.56,16.6,22.71,26,31,26.79,23.68,62.67,33.91,97.36,43.81,14.95,4.26,31.53,8.51,50.7,13,9.92,2.35,20.2,4.26,31.1,6.29,16.45,3.06,33.47,6.22,49.12,11,7.43,2.28,14.72,4.88,22.95,8.15,13.67,5.45,25.33,11.45,37.67,17.79,6.93,3.56,14.09,7.24,21.94,11,19.67,9.41,43.53,19.1,73,29.62,2.4.86,4.74,1.75,7.06,2.62l2,.73c19.5,7.29,36,16.46,51.94,25.33,32.06,17.82,62.39,34.68,111.79,33.42,56.23-1.39,101-21.22,155-52.76,8.79-5.15,17.56-10.62,26.85-16.43,20.12-12.57,40.93-25.56,62.67-35.51,27.62-12.55,54.23-18.33,81.12-17.67,47.6,1.16,65.94,23.23,85.36,46.6,11.3,13.59,23,27.65,41.12,38.48a74,74,0,0,0,12.76,6c15.79,5.69,32.42,7.39,48.51,9,21.08,2.16,41,4.19,56.2,15,11,7.76,20.82,16,31.23,24.7,21.48,18,43.69,36.54,76.53,50.58,34.78,14.86,72.76,17.36,119.54,7.86,15.86-3.22,29.55-9.44,42.78-15.46,24.52-11.15,47.68-21.68,81.5-12.7,9.84,2.61,19.32,7,30.72,14.21q3.12,2,6.21,4c10.38,6.73,20.51,13.27,31.19,17.41H1643c-8.9-4.14-17.5-9.69-26.26-15.37l-6.19-4c-11.19-7.08-20.46-11.37-30-13.91-33-8.76-55.75,1.6-79.86,12.56-13.36,6.08-27.18,12.36-43.3,15.64a283.08,283.08,0,0,1-36.55,5.08h-30.25a168.68,168.68,0,0,1-54.18-13.1c-33.17-14.18-55.52-32.87-77.13-50.95-10.38-8.68-20.18-16.88-31.08-24.58-14.68-10.44-34.29-12.45-55-14.57-16.23-1.66-33-3.37-49.08-9.16a76.76,76.76,0,0,1-13.19-6.23c-18.49-11.05-30.31-25.27-41.74-39C1050,895.65,1032,874,985.49,872.87c-26.67-.64-52.78,5.06-80,17.45-21.6,9.88-42.34,22.83-62.4,35.35-9.3,5.82-18.08,11.3-26.9,16.47-54.35,31.74-99.43,51.7-156.18,53.1-50.14,1.27-80.67-15.75-113-33.73-15.88-8.83-32.29-18-51.61-25.18l-2-.74c-2.3-.86-4.64-1.74-7-2.6-29.51-10.55-53.45-20.27-73.2-29.72-7.88-3.77-15.06-7.46-22-11-12.29-6.32-23.9-12.28-37.45-17.68-8.17-3.26-15.4-5.83-22.77-8.09-15.52-4.78-32.46-7.93-48.85-11-10.92-2-21.24-4-31.21-6.31-19.21-4.49-35.82-8.75-50.81-13-35-10-71.11-20.28-98.31-44.32-9.56-8.47-18.2-18.78-26.43-31.53-4.46-6.87-8.56-14-12.52-20.89-3.18-5.54-6.19-10.77-9.27-15.69a214.56,214.56,0,0,0-19.77-27.14c-8.67-10-17.8-18.09-28.41-27.43L1,665.34Z"
          transform="translate(-1 0)"/>
    <path id="Path_1384" data-name="Path 1384" class="cls-1"
          d="M1918.64,988.1c-3.81.78-7.77,1.42-12,1.92-10.11,1.21-20.54,1.65-30.6,2.06-14.61.61-29.72,1.23-44.17,4.23-37.56,7.8-68.66,30.59-91.56,49.58q-3.46,2.85-6.82,5.68c-11.16,9.39-21.75,18.24-35,24.62h-6.1c1.23-.48,2.45-.94,3.7-1.52,13.64-6.29,24.43-15.36,35.86-25,2.25-1.89,4.52-3.8,6.82-5.7,23.12-19.16,54.53-42.17,92.63-50.07,14.64-3.05,29.85-3.68,44.55-4.29,10-.42,20.4-.85,30.42-2,4.31-.52,8.37-1.19,12.25-2Z"
          transform="translate(-1 0)"/>
    <path id="Path_1385" data-name="Path 1385" class="cls-1"
          d="M1918.64,970.48a71.74,71.74,0,0,1-17.23,7.14,117.9,117.9,0,0,1-21.28,3.54c-10.29.82-20.87.67-31.09.55-13.74-.19-27.93-.37-41.6,1.77-32.75,5.2-60.84,22.71-91.56,43.35l-2.28,1.53c-14.3,9.57-27.81,18.62-43.83,24.56-31.75,11.77-51.79-3-73-18.53-3.35-2.46-6.72-4.94-10.17-7.33-10.46-7.21-19.27-11.5-28.6-13.9-31.32-8.1-52.33,4.05-74.57,16.9-13,7.53-26.5,15.31-42.85,19.69-45.93,12.29-82.86,10.22-116.22-6.53-29.46-14.79-49.55-36.81-69-58.11-9.49-10.42-19.32-21.19-30-30.77-14.52-13.07-34.6-15.83-55.84-18.75-14.65-2-29.81-4.1-43.64-9.78a68.41,68.41,0,0,1-12.45-6.68c-17.31-11.81-27.4-26.88-37.16-41.46-16.19-24.19-31.48-47-78.3-47.61-25.22-.38-50.24,5.62-76.66,18.41-27.24,13.24-52.48,31.64-76.88,49.45l-7,5.09c-47.32,34.34-92,66.8-150.73,73.83-48.09,5.8-77.26-15.62-108.15-38.26-14.93-10.94-30.37-22.26-48.34-30.52q-4.17-1.92-8.5-3.79c-22.33-9.44-47.33-18.28-71.5-26.82-22.08-7.8-42.19-14.73-64.71-20.58-8.5-2.21-16.17-4-23.45-5.6-15.33-3.3-31.35-5.72-46.85-8-10.93-1.65-21.26-3.21-31.4-5.05-20-3.6-35.78-6.83-49.74-10.17-30.83-7.26-69.19-16.3-95.2-41.1-9-8.57-16.73-19.14-23.69-32.29-5.23-9.84-9.61-20.22-13.85-30.27-1.24-2.93-2.46-5.84-3.7-8.69-5.37-12.49-10.16-22.84-16-32.77a187.17,187.17,0,0,0-24.93-32.8C39.53,631.74,21.17,617.52,1,607v-2.74C21.85,615,40.79,629.53,58.44,648.42a188.76,188.76,0,0,1,25.24,33.21c6,10,10.79,20.48,16.2,33q1.84,4.29,3.7,8.71c4.22,10,8.58,20.34,13.75,30.08,6.84,12.92,14.44,23.28,23.23,31.67,25.53,24.34,63.54,33.3,94.08,40.49,13.93,3.32,29.7,6.54,49.62,10.14,10.09,1.83,20.41,3.39,31.33,5,15.53,2.34,31.59,4.76,47,8.07,7.31,1.58,15,3.42,23.55,5.63,22.62,5.88,42.78,12.83,64.91,20.65,24.2,8.56,49.23,17.4,71.63,26.87q4.38,1.88,8.57,3.82c18.19,8.37,33.73,19.76,48.76,30.77,30.49,22.35,59.32,43.46,106.42,37.8,58.1-7,102.54-39.23,149.6-73.38l7-5.08c24.49-17.87,49.81-36.35,77.25-49.68,26.77-13,52.11-19,77.76-18.66,48.1.6,63.74,24,80.29,48.69,9.63,14.39,19.59,29.27,36.51,40.81a65.94,65.94,0,0,0,12,6.43c13.55,5.57,28.55,7.63,43.06,9.62,21.62,3,42.05,5.79,57.13,19.36,10.77,9.65,20.64,20.48,30.19,30.94,19.28,21.13,39.22,43,68.28,57.57,32.79,16.47,69.17,18.49,114.5,6.35,16-4.29,29.36-12,42.26-19.44,22.68-13.11,44.1-25.49,76.4-17.15,9.6,2.48,18.66,6.87,29.36,14.26,3.47,2.4,6.86,4.9,10.23,7.37,20.67,15.18,40.19,29.53,70.72,18.21,15.76-5.85,29.15-14.81,43.32-24.31l2.28-1.52c31-20.8,59.3-38.45,92.54-43.74,13.88-2.17,28.19-2,42-1.8,10.18.13,20.69.27,30.86-.54a115,115,0,0,0,20.85-3.46,69.74,69.74,0,0,0,17.86-7.67Z"
          transform="translate(-1 0)"/>
    <path id="Path_1386" data-name="Path 1386" class="cls-1"
          d="M1918.64,936.33c-11.45,15.85-24.78,28.55-44.4,33.27-17,4.1-34.75,2.82-51.9,1.58-13-.94-26.38-1.92-39.37-.55-28.71,3-54.83,17.22-80.09,31-19.28,10.48-39.23,21.31-60.47,27.38-31.38,9-48.83-5.86-67.31-21.54-11.61-9.84-23.61-20-39.54-24-29.75-7.46-49.1,6.39-69.57,21-12.61,9-25.65,18.35-42.12,23.93-45.2,15.3-79.58,13.75-111.46-5.05-25.8-15.2-43.53-40.19-60.67-64.35-9.12-12.86-18.55-26.16-29.1-37.87-14.22-15.77-35.44-19.46-56-23-17.88-3.12-36.38-6.34-50.61-17.42-16.18-12.6-24.56-28.54-32.66-44-13.9-26.44-25.91-49.27-73-49.44H1010c-57.6,0-108.75,38.7-151.2,76.6q-4.74,4.23-9.52,8.53c-40.66,36.53-82.69,74.29-135.75,86-46.24,10.22-74-15.63-103.44-43-13.93-13-28.34-26.39-44.91-35.63-54.82-30.59-136.44-39.82-208.45-48-31.87-3.61-62-7-88.56-12-37-6.89-69.48-14.5-92.09-37.88-19.12-19.78-26.64-47-33.92-73.31-3.66-13.21-7.44-26.88-12.63-39.48C101.86,602.28,54.86,583.85,1,578.3v-2.47c54.72,5.55,102.54,24.15,130.72,92.43C137,681,140.78,694.73,144.45,708c7.2,26,14.64,52.92,33.33,72.26,22.11,22.86,54.2,30.36,90.79,37.17,26.5,4.94,56.56,8.34,88.38,11.94,72.24,8.18,154.12,17.44,209.37,48.26,16.83,9.39,31.34,22.91,45.38,36C640.64,940.57,668,966,713,956.05c52.42-11.61,94.22-49.16,134.64-85.46l9.53-8.55c42.8-38.2,94.39-77.22,152.82-77.22h.49c48.53.18,61.44,24.75,75.12,50.75,8,15.19,16.24,30.89,32,43.17,13.75,10.7,31.94,13.87,49.53,16.94,20.93,3.65,42.57,7.41,57.34,23.81,10.65,11.81,20.12,25.17,29.28,38.08,17,24,34.56,48.73,59.92,63.67,31.22,18.4,65,19.89,109.45,4.83,16.12-5.45,29-14.68,41.48-23.6,21-15,40.73-29.14,71.58-21.42,16.48,4.13,28.7,14.49,40.52,24.52,18,15.25,35,29.65,65.07,21,21-6,40.81-16.76,60-27.18,25.47-13.84,51.81-28.16,81-31.22,13.2-1.39,26.73-.41,39.8.54,17,1.22,34.51,2.5,51.15-1.52,20-4.81,33.34-18.36,45-35.1Z"
          transform="translate(-1 0)"/>
    <path id="Path_1387" data-name="Path 1387" class="cls-1"
          d="M1918.64,900a112.84,112.84,0,0,1-13.94,13.27,90.18,90.18,0,0,1-32.24,16.85c-17,4.71-34.39,5.31-51.24,5.89-13.2.45-25.68.88-38,3.13-26.33,4.81-49.34,19-73.71,34-19.6,12.08-39.87,24.56-62,31.69-32.2,10.36-51.48-4.46-71.91-20.16-11.27-8.67-22.94-17.63-37.12-22.19a81.68,81.68,0,0,0-15.92-3.57c-18.48-2-31.36,5.22-46.26,13.62-3.28,1.85-6.65,3.75-10.19,5.6-9.08,4.77-20.15,10.12-33.36,13.53-26.72,7-47.86,8.84-66.53,5.77a103.75,103.75,0,0,1-43.34-18.17c-10.72-7.6-20.6-17.56-31.1-31.34-6.39-8.45-12.54-17.7-18.5-26.66-11.09-16.67-22.55-33.91-36.58-47.71-15.85-15.67-38-17.41-59.47-19.08-16.84-1.32-32.76-2.56-45.59-10.12-15.55-9.18-24.35-22-32.87-34.39-14.7-21.4-28.6-41.62-75-44.25-4.63-.26-9.42-.35-14.2-.26-54.16,1-101.62,33.12-140.91,64.38-5.08,4-10.18,8.19-15.32,12.37l-8,6.5c-35.81,29-76.41,61.92-126.84,72.16-44.19,9-71.32-14.73-100-39.83-13.47-11.78-27.41-24-43.27-32.45C521.1,819.74,441.9,810.9,372,803.1c-29.2-3.26-56.77-6.34-81.46-10.63-28.84-5.06-64.73-11.36-88.58-33.93q-2-1.93-3.91-4C182,737.17,174.35,714.32,167,692.23c-3.9-11.69-7.93-23.77-13.17-35-13.39-28.52-31.27-48.85-54.69-62.15C70.37,578.7,36.8,574.56,1,572.56v-2.43c35.28,2,70.26,6.29,99.31,22.88,23.86,13.56,42.07,34.25,55.68,63.24,5.31,11.3,9.36,23.46,13.29,35.21,7.29,21.85,14.84,44.44,30.57,61.47,1.22,1.31,2.48,2.59,3.8,3.84,23.31,22.07,58.8,28.3,87.32,33.3,24.61,4.28,52.16,7.35,81.3,10.61,70.1,7.83,149.54,16.7,204.09,45.71,16.11,8.62,30.15,20.9,43.73,32.77,28.26,24.69,55,48,98,39.27,49.85-10.12,90.19-42.82,125.79-71.67l8-6.5q7.71-6.28,15.33-12.38c39.61-31.52,87.5-63.87,142.37-64.9,4.87-.1,9.7,0,14.4.26,47.57,2.69,62.46,24.35,76.84,45.3,8.37,12.18,17,24.77,32.11,33.66,12.35,7.28,28,8.5,44.54,9.8,21.89,1.71,44.51,3.48,61,19.78,14.2,14,25.74,31.32,36.9,48.1,5.93,8.92,12.06,18.14,18.41,26.53,10.34,13.58,20,23.37,30.57,30.82A101.21,101.21,0,0,0,1366.65,995c18.32,3,39.13,1.2,65.52-5.72,13-3.35,23.88-8.62,32.85-13.34,3.5-1.84,6.85-3.73,10.11-5.56,15.28-8.61,28.47-16,47.73-13.92a83.83,83.83,0,0,1,16.4,3.67c14.58,4.68,26.41,13.78,37.86,22.58,19.9,15.3,38.7,29.75,69.67,19.77,21.88-7,42-19.44,61.5-31.44,23.49-14.46,47.77-29.42,74.55-34.32,12.44-2.28,25.59-2.73,38.3-3.17,16.7-.57,34-1.17,50.67-5.8a87.81,87.81,0,0,0,31.38-16.4,115.06,115.06,0,0,0,15.45-15.05Z"
          transform="translate(-1 0)"/>
    <path id="Path_1388" data-name="Path 1388" class="cls-1"
          d="M1918.64,864a127.7,127.7,0,0,1-15,10.92c-11.64,7.24-22.11,12.2-32.93,15.61-16.54,5.2-33.28,7.65-49.47,10-13.25,1.94-25.76,3.78-37.63,7-24,6.48-45.12,21.14-67.43,36.66-19.85,13.81-40.38,28.08-63.49,36.4-33.41,12-55-3.18-77.74-19.28-10.48-7.4-21.31-15.05-33.45-19.87a117.85,117.85,0,0,0-15.17-5.06c-16.83-4.09-27.55.07-41.13,5.35-3.23,1.26-6.6,2.57-10.22,3.83a214.79,214.79,0,0,1-33.26,9.27c-20.76,3.8-45,7-67,1.7-14.85-3.56-28.36-10.58-41.3-21.47-9.68-8.21-18.66-18.85-28.27-33.49-4.16-6.33-8.12-12.85-12.32-19.75-12.24-20.12-24.9-40.92-42-55.94-17.86-15.68-41.23-15.06-63.83-14.45-14.64.39-28.47.76-39.65-3.52-15.47-5.92-24.51-15.53-34.08-25.71-15.34-16.32-31.2-33.19-76-38.15-4.56-.5-9.34-.92-14.21-1.24-56.21-3.65-104.51,24.67-144.34,52.86-6.45,4.56-12.79,9.25-19.5,14.21l-8.46,6.25c-38.59,28.55-78.48,58.06-127.1,67.05-42.07,7.81-68.51-13.75-96.51-36.55C614.05,836,600.54,825,585.3,817.32c-53.54-27.17-130.52-35.58-198.44-43-26.35-2.87-51.26-5.6-73.86-9.22-27.56-4.51-61.85-10.13-85.08-30-1.32-1.13-2.6-2.3-3.82-3.5-16-15.56-24.3-36-32.33-55.79-4.13-10.16-8.39-20.67-13.66-30.43-13.65-25.29-31.3-43.4-54-55.35-32.1-16.93-71.64-19.71-109.88-22.4L1,566.69v-2.44c4.5.34,9,.66,13.44,1,38.5,2.7,78.3,5.5,110.85,22.67,23.1,12.19,41.08,30.62,55,56.35,5.33,9.87,9.62,20.45,13.78,30.67,7.93,19.55,16.13,39.75,31.77,55,1.19,1.16,2.42,2.29,3.71,3.4,22.7,19.4,56.62,25,83.88,29.42,22.54,3.62,47.41,6.33,73.74,9.21,68.13,7.44,145.34,15.88,199.28,43.24,15.46,7.85,29.07,18.93,42.23,29.64,27.55,22.43,53.58,43.61,94.53,36.05,48.06-8.89,87.72-38.24,126.08-66.62l8.47-6.27c6.72-5,13.07-9.65,19.54-14.23,40.17-28.43,89-57,145.91-53.3,4.9.32,9.72.74,14.32,1.25,45.72,5.06,62.62,23,77.53,38.9,9.38,10,18.23,19.38,33.18,25.11,10.73,4.1,24.32,3.74,38.72,3.35,22-.59,46.92-1.26,65.5,15.05,17.4,15.27,30.16,36.24,42.49,56.52,4.19,6.88,8.14,13.37,12.28,19.67,9.47,14.44,18.31,24.91,27.8,33,12.64,10.64,25.82,17.5,40.3,21,21.57,5.17,45.45,2,66-1.73a212.94,212.94,0,0,0,32.88-9.17c3.6-1.25,6.95-2.56,10.16-3.8,13.42-5.22,25-9.73,42.57-5.45a118.84,118.84,0,0,1,15.5,5.16c12.42,4.93,23.37,12.67,34,20.15,22.26,15.72,43.28,30.57,75.51,19,22.8-8.2,43.2-22.38,62.93-36.1,22.49-15.64,43.73-30.41,68.18-37,12-3.24,24.59-5.08,37.91-7,16.09-2.36,32.74-4.8,49.09-9.92,10.63-3.36,20.92-8.24,32.38-15.37a127,127,0,0,0,16.31-12Z"
          transform="translate(-1 0)"/>
    <path id="Path_1389" data-name="Path 1389" class="cls-1"
          d="M1918.64,828.57c-4.65,2.57-9.8,5.16-16.13,8.1l-3.78,1.75c-8.78,4.09-18.72,8.72-29.84,12.63-15,5.26-30,9.22-44.57,13.05s-28.11,7.4-40.42,11.92c-21.84,8-41,23-61.28,38.92-20,15.69-40.74,31.91-64.83,41.52-35.24,14-60.75-2.86-85.41-19.2-9-6-18.27-12.11-28-16.76-4.92-2.35-10-4.78-14.44-6.55-15.94-6.38-24.69-4.76-37.94-2.33-2.6.48-5.35,1-8.34,1.47q-3.46.55-7.33,1.22c-7.54,1.29-16.1,2.75-25.77,3.79-22.6,2.42-46.41,4.24-67.4-2.36C1368.83,911.21,1356,903.11,1344,891c-11.09-11.18-19.43-24.92-25.45-35.63-2.39-4.25-4.77-8.64-7.19-13.09-12.85-23.67-26.14-48.14-46.4-63.93s-46.34-12.07-69.27-8.72c-12,1.76-23.38,3.42-32.58,2-16.49-2.58-26.3-9.71-37.67-18-15.64-11.36-33.37-24.24-74.77-31.11-4.74-.78-9.48-1.53-14.21-2.22-58.79-8.69-109.85,17.52-147.79,41.35-7.75,4.86-15.42,10-23.54,15.48l-1.93,1.3q-5.31,3.58-10.6,7.19c-37.75,25.65-76.78,52.17-123.87,60-40,6.67-65.77-12.74-93.09-33.29C623,802.86,610,793.06,595.4,786.09,542.5,760.73,468,752.76,402.2,745.73c-23.72-2.54-46.12-4.94-66.75-8-26.24-3.9-58.88-8.74-81.56-26-1.29-1-2.55-2-3.76-3-15.93-13.71-24.93-31.75-33.64-49.2-4.32-8.65-8.78-17.59-14.05-25.94-13.93-22.11-31.35-38-53.23-48.55-29-14-63.92-17.44-97.7-20.77-16.8-1.65-34-3.37-50.51-6.37v-2.48c16.6,3,33.86,4.76,50.75,6.43,34,3.35,69.14,6.81,98.52,21,22.3,10.76,40,26.94,54.23,49.44,5.33,8.45,9.82,17.45,14.16,26.15,9,18,17.5,35,33.06,48.44,1.17,1,2.38,2,3.64,3,22.19,16.92,54.49,21.71,80.44,25.56,20.58,3.06,43,5.45,66.66,8,66,7.06,140.72,15.05,194,40.59,14.76,7.08,27.9,17,40.6,26.5,26.9,20.22,52.32,39.32,91.23,32.83,46.56-7.76,83.64-33,122.9-59.64l10.61-7.19,1.93-1.3c8.14-5.47,15.82-10.64,23.6-15.53,38.29-24,89.89-50.51,149.45-41.69q7.11,1.05,14.25,2.23c42,7,60.72,20.59,75.8,31.54,11.11,8.07,20.7,15,36.61,17.53,8.83,1.38,20-.25,31.86-2,23.41-3.42,50-7.3,71.12,9.21,20.66,16.1,34.07,40.8,47,64.69,2.41,4.44,4.79,8.82,7.17,13,5.94,10.59,14.17,24.14,25.05,35.12,11.76,11.86,24.27,19.77,38.26,24.16,20.53,6.47,44.06,4.66,66.41,2.27,9.59-1,18.11-2.48,25.63-3.77l7.35-1.23c3-.47,5.7-1,8.28-1.45,13.16-2.42,22.68-4.18,39.29,2.46,4.5,1.79,9.63,4.24,14.59,6.61,9.84,4.72,19.2,10.93,28.25,16.92,25.25,16.74,49.1,32.56,83.16,19,23.77-9.48,44.35-25.59,64.24-41.18,20.43-16,39.74-31.13,61.93-39.29,12.42-4.56,26.13-8.17,40.64-12s29.48-7.76,44.39-13c11-3.87,20.89-8.48,29.62-12.54l3.78-1.76c6.81-3.16,12.25-5.92,17.15-8.69Z"
          transform="translate(-1 0)"/>
    <path id="Path_1390" data-name="Path 1390" class="cls-1"
          d="M1918.64,793.58c-4.82,1.19-10.26,2.56-17.26,4.77s-14.4,5.22-22.35,8.43c-3.84,1.55-7.81,3.16-11.92,4.76-8,3.11-16.12,6.13-24,9.11-21.68,8.14-42.15,15.83-58.85,23.81-19.68,9.4-37,24.61-55.22,40.72-20.13,17.73-40.94,36.08-66.08,47.11-38.1,16.71-67.53-2.29-96-20.66-6.4-4.13-13-8.4-19.54-12.12-3.16-1.8-6.08-3.54-8.79-5.16-1.71-1-3.34-2-4.9-2.91-16.94-9.85-23.64-10.15-39.86-10.84l-1.4-.06c-6.26-.28-13.68,0-22.28.39-3.39.14-6.93.28-10.64.4l-.68,0c-23,.75-46.78,1.52-67.14-6.45-14.09-5.51-25.91-14.43-37.21-28.08-9.57-11.54-16.53-25-22.63-37.77l-3-6.4c-12.33-26.11-26.31-55.7-49.8-71.94s-52.5-7.9-75.82-1.21c-9,2.58-17.44,5-24.36,5.64-19.8,1.81-30.7-3.27-47.22-11-15-7-33.78-15.74-67.6-23.26-4.73-1.06-9.46-2.12-14.2-3.21-47.66-11-94.3-1.78-151.25,29.84-8.42,4.68-16.65,9.68-26.52,15.72-5.74,3.53-11.43,7.1-17.1,10.66-38.74,24.31-75.32,47.28-121.2,54.09-37.84,5.64-63-11.68-89.72-30-12.14-8.33-24.7-16.95-38.53-23.16-52.9-23.77-125.78-31.33-190.09-38-20.32-2.11-39.52-4.1-57.51-6.5-26.26-3.52-56-7.49-78-22.08-1.27-.84-2.49-1.71-3.68-2.59-15.92-11.85-25.68-27.48-35.12-42.59-4.45-7.13-9.05-14.5-14.27-21.45-14.22-18.91-31.4-32.57-52.52-41.77-25.68-11.17-56-15-85.23-18.71-26.8-3.39-54.51-6.9-78.62-16A93.35,93.35,0,0,1,1,540.92v-2.79a90.09,90.09,0,0,0,10.28,4.73c23.84,9,51.4,12.52,78.06,15.9,29.45,3.72,59.9,7.58,85.9,18.89,21.52,9.37,39,23.28,53.5,42.54,5.28,7,9.91,14.45,14.4,21.63,9.74,15.6,18.95,30.34,34.5,41.92q1.73,1.28,3.57,2.51c21.53,14.28,51,18.22,77,21.69,17.95,2.4,37.13,4.39,57.44,6.5,64.48,6.69,137.58,14.27,190.83,38.19,14,6.3,26.68,15,38.9,23.39,26.28,18,51.08,35.07,88,29.6,45.37-6.74,81.74-29.57,120.26-53.75q8.52-5.34,17.12-10.67c9.9-6.06,18.15-11.07,26.63-15.78,57.5-31.94,104.69-41.22,153-30.09,4.73,1.1,9.46,2.15,14.19,3.2,34.07,7.58,52.94,16.38,68.09,23.44,16.16,7.53,26.83,12.52,46,10.74,6.69-.61,15.06-3,23.91-5.55,23.81-6.84,53.46-15.34,77.88,1.54,24,16.61,38.15,46.52,50.61,72.9l3,6.4c6,12.65,12.91,25.92,22.3,37.27,11,13.31,22.54,22,36.22,27.36,19.9,7.78,43.44,7,66.18,6.29l.68,0c3.7-.12,7.24-.27,10.61-.41,8.66-.35,16.14-.67,22.49-.39l1.4.06c16.15.7,23.53,1,41,11.17,1.57.92,3.21,1.9,4.94,2.93,2.69,1.61,5.59,3.35,8.74,5.13,6.59,3.76,13.23,8.05,19.65,12.19,27.93,18,56.8,36.67,93.7,20.48,24.8-10.88,45.47-29.09,65.45-46.7,18.41-16.22,35.8-31.55,55.78-41.1,16.8-8,37.32-15.72,59-23.88,7.93-3,16-6,24-9.11,4.1-1.59,8-3.19,11.88-4.74,8-3.24,15.56-6.29,22.54-8.5,7.35-2.32,13-3.73,18-5Z"
          transform="translate(-1 0)"/>
    <path id="Path_1391" data-name="Path 1391" class="cls-1"
          d="M1918.64,759.19a65.11,65.11,0,0,0-18.38.84c-10.68,1.92-22.62,6.76-34.94,12a673.12,673.12,0,0,0-80.8,40.88c-17.56,10.6-33,25.85-49.25,42-20.15,20-41,40.62-67.23,53.23-43,20.67-79.6-4-111.87-25.68l-5.83-3.92c-4.92-3.26-9.13-6.54-12.95-9.6l-3.06-2.45c-13.58-10.91-18.16-14.58-33.2-18.53-8.46-2.22-19.83-2.85-32.72-3.38l-6.51-.26c-21.32-.8-43.37-1.62-61.74-10.24-13.66-6.42-24.84-16.39-35.17-31.39-8.58-12.47-14.71-27.13-19.79-39.91-11.2-28.15-25.14-63.19-52.09-79.67-27.43-16.78-59.7-1.91-83.26,8.94-5.56,2.56-10.81,5-15.24,6.6-26.72,9.77-39.74,5.44-71.17-5-11.91-4-26.73-8.9-46-14.3-5-1.39-9.61-2.76-14.2-4.19-49.46-15.45-97.16-9.78-154.7,18.33-8.61,4.21-17.26,8.92-27.61,14.69-7.79,4.36-15.58,8.9-23.12,13.29-38.1,22.19-74.08,43.16-119,49-35.74,4.64-60.37-10.58-86.43-26.7-11.65-7.2-23.69-14.65-36.78-20.1C562,701.28,490,694.13,426.4,687.82c-16.17-1.6-31.44-3.12-46.06-4.83-25-2.93-53.27-6.25-74.5-18.12-1.23-.69-2.43-1.41-3.59-2.14-16-10-26.6-23.2-36.84-36-4.5-5.62-9.15-11.42-14.25-17a134.28,134.28,0,0,0-51.82-35c-22.1-8.49-47.59-12.39-72.23-16.16-28.3-4.33-57.56-8.8-81.89-20.27C26.58,529.6,12.63,515.16,1,497.53v-4.42c11.83,18.73,26,34,45.25,43.07,24,11.31,53.1,15.76,81.23,20.06,24.77,3.79,50.38,7.71,72.73,16.3A136.62,136.62,0,0,1,253,608.15c5.16,5.6,9.84,11.45,14.36,17.09,10.58,13.2,20.57,25.66,36.23,35.43,1.13.7,2.29,1.4,3.49,2.08,20.8,11.63,47.64,14.78,73.59,17.82,14.6,1.71,29.86,3.23,46,4.83,63.73,6.33,136,13.5,189.89,36,13.27,5.53,25.39,13,37.12,20.28,25.69,15.88,50,30.88,84.84,26.35,44.42-5.78,80.2-26.62,118.08-48.68,7.54-4.39,15.34-8.94,23.16-13.32,10.38-5.79,19.07-10.51,27.73-14.74,58.12-28.42,106.39-34.12,156.49-18.48,4.57,1.43,9.19,2.8,14.13,4.18,19.34,5.41,34.19,10.36,46.12,14.33,31.77,10.57,43.65,14.52,69.58,5,4.33-1.58,9.53-4,15-6.52,24.06-11.08,57-26.25,85.55-8.81,27.65,16.91,41.75,52.37,53.08,80.86,5,12.65,11.1,27.16,19.54,39.42,10.07,14.63,20.93,24.34,34.2,30.56,17.91,8.42,39.71,9.23,60.8,10l6.51.25c13,.54,24.54,1.18,33.23,3.46,15.55,4.08,20.61,8.14,34.12,19l3.05,2.45c3.78,3,7.94,6.28,12.78,9.48l5.85,3.93c31.72,21.36,67.68,45.58,109.44,25.51,25.88-12.44,46.57-32.94,66.57-52.76,16.41-16.26,31.91-31.62,49.71-42.36a676.15,676.15,0,0,1,81.12-41c12.45-5.28,24.53-10.18,35.45-12.15a69,69,0,0,1,18.81-.88Z"
          transform="translate(-1 0)"/>
    <path id="Path_1392" data-name="Path 1392" class="cls-1"
          d="M1918.64,725.51a38.66,38.66,0,0,0-19.5-3.84c-12.1.65-25.38,6.13-35.6,10.83-23.06,10.54-49.54,27-78.71,48.81-15.44,11.56-29,26.67-43.35,42.67-20.1,22.42-40.9,45.6-68.33,60-45.85,24-90.37-3.58-119.86-26.42a102.92,102.92,0,0,1-12.18-11.15c-4.77-5.09-8.14-9.4-11.12-13.22-5.82-7.44-10-12.83-20.14-17.88-8.64-4.32-20.75-6.16-32.54-7.51-3.57-.41-7.2-.78-10.87-1.15-20.11-2-40.92-4.13-57.81-13.41-13.29-7.32-23.82-18.34-33.09-34.69-7.18-12.64-11.94-26.51-17-42-10.91-33.58-24.69-66.64-51.35-81-32.62-17.58-69.4,7.72-91.37,22.84-2,1.34-3.79,2.6-5.49,3.74-35.8,24-50.23,19.15-119.53-4.34-4.73-1.6-9.5-3.35-14.18-5.18-51.23-20.14-100-18-158.16,6.83-10.14,4.34-20.19,9.33-28.68,13.64-9.74,5-19.4,10.21-28.74,15.28-37.56,20.39-73,39.65-117.19,44.54-33.66,3.73-57.78-9.44-83.28-23.38-11.11-6.08-22.6-12.36-34.89-17.05-55.68-21.25-128.42-28-192.58-33.9-10.38-1-20.53-1.9-30.33-2.87l-1.17-.12c-24.33-2.42-49.5-4.92-69.77-14-1.2-.54-2.37-1.1-3.52-1.67-16.28-8.14-27.34-18.47-39-29.4-4.38-4.1-8.91-8.33-13.73-12.43-14.69-12.49-31.42-21.72-51.14-28.23-18.1-6-38.5-9.55-58.22-13-30.3-5.31-61.62-10.82-86.19-25.1-33.08-19.23-47-57.55-61.81-98.12C12.9,418.93,7.46,404,1,389.71v-5.8c7.49,15.87,13.58,32.51,19.49,48.74,14.62,40.14,28.43,78.06,60.74,96.84,24.2,14.07,55.31,19.53,85.39,24.82,19.81,3.48,40.29,7.07,58.55,13.1,20,6.6,37,16,52,28.69,4.86,4.13,9.41,8.38,13.82,12.5,11.56,10.81,22.49,21,38.46,29,1.12.55,2.26,1.1,3.43,1.63,19.91,9,44.87,11.45,69,13.84l1.17.13c9.79,1,19.93,1.91,30.3,2.86,64.33,6,137.23,12.69,193.23,34.06,12.45,4.75,24,11.07,35.19,17.19,25.16,13.75,48.91,26.73,81.85,23.09,43.66-4.84,78.94-24,116.29-44.26,9.36-5.08,19-10.33,28.8-15.31,8.53-4.32,18.62-9.34,28.83-13.7,58.77-25.13,108.12-27.26,160-6.86,4.63,1.82,9.37,3.55,14.06,5.14,68.37,23.17,82.59,28,117.4,4.63,1.7-1.14,3.52-2.4,5.47-3.74,22.43-15.43,60-41.25,93.9-23,27.41,14.78,41.43,48.34,52.51,82.4,5,15.4,9.71,29.15,16.78,41.59,9,15.94,19.26,26.67,32.16,33.75,16.45,9,37,11.12,56.88,13.13,3.68.37,7.32.74,10.9,1.15,12,1.37,24.37,3.27,33.35,7.75,10.6,5.3,15,10.86,21,18.56,2.95,3.77,6.29,8.05,11,13.05a99.88,99.88,0,0,0,11.9,10.89c29,22.44,72.61,49.56,117.23,26.19,27-14.16,47.68-37.18,67.65-59.44,14.43-16.09,28.06-31.29,43.7-43,29.3-22,55.93-38.46,79.15-49.08,10.41-4.79,24-10.37,36.47-11a40.5,40.5,0,0,1,19.64,3.59Z"
          transform="translate(-1 0)"/>
    <path id="Path_1393" data-name="Path 1393" class="cls-1"
          d="M10.51,223.22c-1.88,8.08-4.07,15.59-6,22.22C3.21,249.91,2,254,1,258v-9.16c.39-1.34.76-2.66,1.17-4.05,2-6.93,4.1-14.08,6-22.09,5.61-24.11,7.13-59.35-5.46-85.91-.52-1.11-1.09-2.2-1.67-3.27v-4.87a72.88,72.88,0,0,1,3.87,7.1C17.72,162.85,16.21,198.71,10.51,223.22Z"
          transform="translate(-1 0)"/>
    <path id="Path_1394" data-name="Path 1394" class="cls-1"
          d="M1918.64,692.59c-5.28-4.56-11.22-8.68-20.63-9.28-10.12-.64-21.62,2.42-36.26,9.67-28.36,14-55.84,37.66-76.61,56.73-13.31,12.22-25,27-37.44,42.57-20,25.15-40.69,51.16-69.42,67.5-43.21,24.55-91.36,4.08-122-23.25a75.57,75.57,0,0,1-11.39-12.71,106.8,106.8,0,0,1-10.75-19.44c-3.75-8.24-7-15.35-15.5-21.79s-21.21-9.54-32.39-11.62c-4.64-.86-9.41-1.63-14.24-2.4-19.23-3.08-39.11-6.28-54.85-16.21-13-8.22-22.89-20.29-31.06-38-6.29-13.62-10.22-28.88-14-43.64l-.14-.52c-7.36-28.57-20.61-68.18-50.61-82.36-26.73-12.63-57.9-.33-95.3,37.6-34.86,35.38-55.34,37.17-121.78,10.66-4.67-1.86-9.44-3.94-14.16-6.17-53-25.07-102.8-26.5-161.63-4.68-8.53,3.17-18,7.17-29.75,12.6-11.6,5.38-23,11.16-34,16.75-37.14,18.85-72.21,36.65-115.74,40.61-31.73,2.88-55.34-8.27-80.36-20.06-10.5-4.95-21.35-10.07-32.77-14-61.26-21-141.85-27.46-206.6-32.61l-7.66-.61c-21.95-1.73-44.66-3.52-63.68-9.92-1.17-.39-2.3-.8-3.43-1.21-17-6.32-29.41-14.42-42.5-23-3.88-2.54-7.81-5.12-11.94-7.7-14.81-9.24-31.33-16.26-50.5-21.47-13.38-3.63-28.07-6.43-42.28-9.13-33.18-6.32-67.48-12.84-92.42-30.7-28-20-38.06-54.64-48.69-91.25-6.75-23.23-13.73-47.25-25.68-68.71C34.77,354.64,28.2,345.69,21.85,337l-2.09-2.86C11.19,322.44,5.15,312.66,1,303.84v-6a1.66,1.66,0,0,0,.06.16c4,9.92,10.57,21,20.65,34.78l2.1,2.86c6.4,8.72,13,17.74,18.74,28.08,12.08,21.7,19.1,45.85,25.88,69.21,10.52,36.2,20.45,70.39,47.78,90,24.5,17.55,58.54,24,91.46,30.29,14.25,2.71,29,5.52,42.46,9.18,19.4,5.26,36.14,12.38,51.15,21.75,4.14,2.59,8.09,5.17,12,7.73,13,8.5,25.22,16.54,42,22.75q1.65.62,3.36,1.2c18.74,6.3,41.29,8.08,63.1,9.8l7.66.61c64.89,5.16,145.65,11.58,207.19,32.73,11.56,4,22.47,9.11,33,14.09,24.72,11.65,48.06,22.63,79.1,19.84,43.07-3.92,77.94-21.62,114.86-40.35,11-5.6,22.45-11.4,34.09-16.8,11.82-5.45,21.33-9.48,29.92-12.66,59.49-22.09,109.92-20.62,163.52,4.75,4.68,2.21,9.4,4.27,14,6.11,69.15,27.6,86.57,23,119.15-10.1,38.21-38.77,70.29-51.22,98.07-38.1,30.92,14.61,44.45,54.91,51.93,84l.14.53c3.77,14.65,7.68,29.8,13.88,43.22,8,17.25,17.54,29,30.14,36.95,15.31,9.67,35,12.82,53.94,15.87,4.84.78,9.63,1.55,14.29,2.42,11.47,2.13,24.4,5.23,33.43,12.07s12.35,14.18,16.24,22.72a105.62,105.62,0,0,0,10.5,19,73.72,73.72,0,0,0,11,12.3c30,26.77,77.1,46.87,119.2,22.95,28.32-16.1,48.86-41.93,68.71-66.9,12.47-15.68,24.26-30.5,37.7-42.85,20.89-19.17,48.55-43,77.18-57.12,15-7.44,27-10.59,37.5-9.91,9.23.6,15.27,4.25,20.47,8.52Z"
          transform="translate(-1 0)"/>
    <path id="Path_1395" data-name="Path 1395" class="cls-1"
          d="M1918.64,660.51c-5.55-7.29-11.33-13.77-21.74-15.59s-22.62,1-36.94,8.53c-28.14,14.86-54.61,42.36-74.53,64.66-11.15,12.48-21,26.57-31.51,41.48-19.83,28.25-40.34,57.46-70.52,76-42.83,26.32-94.88,9.82-124.16-20.08a64.71,64.71,0,0,1-10.59-14.24c-4.78-8.67-6.78-16.7-8.72-24.46-2.53-10.12-4.72-18.86-12.48-26.92-6.65-6.91-16.32-11.61-32.3-15.72-5.45-1.4-11-2.6-16.89-3.88-18.58-4-37.79-8.18-52.62-18.8-12.72-9.09-21.93-22.21-29-41.28-5-13.67-7.91-28.64-10.72-43.12l-.63-3.17c-8.9-45.59-25.68-73.75-49.88-83.7-42.44-17.45-82.52,32.81-93.79,48.63-31.3,43.94-55.43,57.22-124,25.65-4.66-2.14-9.41-4.56-14.14-7.17-55.35-30.6-104.72-35.43-165.1-16.18-9.1,2.91-19.19,6.69-30.82,11.56-13.37,5.61-26.37,11.81-38.94,17.8C831.85,638.05,797.1,654.61,754,657.61c-29.88,2.09-54.27-7.5-77.88-16.77-9.73-3.82-19.79-7.76-30.19-10.91C581.25,610.4,501.83,604,447.71,600.87l-8-.45c-19-1-38.58-2.11-55.75-5.82-1.14-.24-2.25-.5-3.35-.76-19.46-4.6-34.52-10.76-50.46-17.29l-5.62-2.3c-14.58-5.92-30.9-10.73-49.9-14.7-7.23-1.5-14.58-2.88-22.36-4.34-37.78-7.07-76.85-14.38-102.65-37.22-23.71-21-30.39-52.85-37.46-86.6-5.3-25.34-10.79-51.54-23.92-74.4C81.81,345.82,73.94,336.4,67,328.09,55.2,314,47.82,304.36,42.31,295.94c-6.77-10.34-9.92-19.45-10.87-31.44-.86-10.88.91-22.87,3-36.76.45-3,.9-6.06,1.34-9.23,2.7-19.26,5.42-55.77-6.58-83.92a69,69,0,0,0-18.5-25.77C7.55,105.42,4.28,102,1,98.66V95.13c3.88,4,7.68,7.94,11.34,11.94a71,71,0,0,1,19,26.56c12.23,28.7,9.48,65.71,6.75,85.21q-.66,4.77-1.34,9.25c-2,13.74-3.78,25.62-2.94,36.22.91,11.55,4,20.33,10.47,30.3C49.8,303,57.13,312.5,68.86,326.53c7,8.39,15,17.9,21.45,29.25,13.32,23.2,18.85,49.59,24.2,75.12,7,33.34,13.58,64.83,36.69,85.28,25.29,22.38,64,29.63,101.49,36.64,7.79,1.47,15.14,2.84,22.4,4.36,19.14,4,35.6,8.85,50.31,14.83l5.63,2.3c16.54,6.76,30.82,12.6,50.1,17.17,1.09.25,2.18.51,3.3.75,17,3.66,36.5,4.73,55.38,5.76l8,.45c54.24,3.13,133.86,9.56,198.78,29.17,10.5,3.17,20.6,7.14,30.37,11,24.44,9.6,47.53,18.67,76.84,16.61,42.63-3,77.18-19.44,113.76-36.86,12.6-6,25.62-12.22,39-17.85,11.7-4.9,21.85-8.7,31-11.63,61.08-19.48,111-14.59,167,16.36,4.67,2.59,9.37,5,14,7.09,66,30.41,89.1,19.92,121-24.84,11.53-16.2,52.59-67.64,96.7-49.48,25,10.29,42.27,39,51.34,85.48l.62,3.18c2.8,14.38,5.69,29.26,10.63,42.74,6.88,18.59,15.82,31.34,28.13,40.15,14.42,10.32,33.38,14.42,51.72,18.4,5.64,1.22,11.47,2.48,17,3.9,16.47,4.23,26.47,9.13,33.46,16.39,8.21,8.53,10.58,18,13.08,28,1.9,7.61,3.87,15.48,8.49,23.87a62.77,62.77,0,0,0,10.2,13.71c27.91,28.5,79.86,45.09,121.15,19.71,29.75-18.29,50.12-47.28,69.8-75.33,10.52-15,20.45-29.12,31.69-41.71,20.06-22.45,46.73-50.14,75.21-65.18,14.82-7.85,27.42-10.73,38.5-8.78,10,1.75,16.1,7.57,21.32,14.05Z"
          transform="translate(-1 0)"/>
    <path id="Path_1396" data-name="Path 1396" class="cls-1"
          d="M1896.47,604.19c10.89,3,17,11.34,22.17,20.25v4.9c-5.7-10.19-11.37-19.61-22.83-22.8-11-3.07-23.36-.66-37.64,7.4-21.69,12.21-46.06,36.63-72.45,72.57-9,12.22-17,25.3-25.56,39.15-19.59,31.81-39.85,64.7-71.64,85.77-42.62,28.25-99.72,14.07-126.31-16.9a59.56,59.56,0,0,1-9.77-15.78c-4.16-9.85-5.23-19.52-6.27-28.86-1.31-11.73-2.54-22.81-9.86-32.66-6.3-8.49-16.26-14.6-32.25-19.84-6.11-2-12.69-3.77-19-5.49-18.07-4.9-36.77-9.95-50.87-21.25-12.54-10-21.1-24.21-26.94-44.58-3.86-13.6-5.82-28.24-7.73-42.41l-.81-6c-4.45-32.41-16.59-73.48-49.16-85-37.18-13.22-73,23.9-92.34,59.7-29.15,53.9-57.9,76.32-126.13,40.6-4.62-2.43-9.37-5.17-14.1-8.16-56.93-36-107.35-44.24-168.58-27.68-9.74,2.63-20.17,6.07-31.9,10.51-15,5.71-29.51,12.21-43.52,18.5C836.37,602.49,801.84,618,759.05,620c-28.39,1.33-52.82-6.24-76.46-13.56C674,603.77,665.07,601,656,598.69c-55-14.11-121-23.06-185.88-25.2-5.81-.19-11.69-.33-17.55-.46-14.28-.33-29.05-.67-42.64-1.88l-3.26-.3A576.07,576.07,0,0,1,349,562.37c-15.67-3.08-32.27-5.5-49.32-7.91-44.16-6.25-89.44-14.74-115.31-43.29-20-22-23.66-52-27.59-83.65-3.34-26.91-6.79-54.74-20.82-78.4-5.8-9.81-12.88-17.94-21.73-27.12-4.87-5.05-9.45-9.66-13.73-14-5.27-5.3-10.24-10.3-14.67-15.06-10.12-10.84-15.9-20.18-19.35-31.23-4.29-13.77-3.95-29.61-3.12-47.4,1.32-28.4,1.3-58-7.71-81.94A81.26,81.26,0,0,0,39.4,105.7C28.24,91.45,15,77.66,1,64.19V60.8c14.64,14,28.59,28.43,40.24,43.32a83.47,83.47,0,0,1,16.68,27.41c9.16,24.37,9.19,54.25,7.86,82.92C65,232,64.62,247.62,68.8,261c3.33,10.68,9,19.74,18.8,30.3C92,296,97,301,102.21,306.31c4.3,4.32,8.88,8.94,13.77,14,7.76,8.05,15.81,17,22.07,27.57,14.29,24.1,17.77,52.18,21.14,79.34,3.87,31.3,7.54,60.86,27,82.3,25.32,28,70.13,36.34,113.85,42.52,17.08,2.42,33.71,4.84,49.44,7.94a573.93,573.93,0,0,0,57.48,8.44l3.23.3c13.51,1.21,28.24,1.54,42.48,1.87,5.88.14,11.76.27,17.59.46,65.06,2.15,131.26,11.13,186.4,25.28,9.09,2.34,18,5.1,26.67,7.78,24.52,7.59,47.64,14.78,75.62,13.45,42.34-2,76.66-17.4,113-33.71,14-6.3,28.55-12.83,43.66-18.57,11.8-4.47,22.3-7.93,32.12-10.58,62-16.74,113-8.38,170.53,28,4.67,2.95,9.36,5.66,13.92,8.06,66.47,34.79,94.45,12.91,122.87-39.61,19.81-36.64,56.67-74.55,95.29-60.83,33.72,12,46.21,53.93,50.75,87l.82,6c1.89,14.08,3.85,28.64,7.65,42.06,5.7,19.86,14,33.64,26.12,43.36,13.7,11,32.15,16,50,20.78,6.39,1.72,13,3.51,19.16,5.53,11.11,3.63,25,9.27,33.45,20.7,7.71,10.38,9,21.78,10.32,33.84,1,9.17,2.07,18.66,6.1,28.19a57.1,57.1,0,0,0,9.36,15.13c25.92,30.18,81.58,44,123.12,16.47,31.35-20.78,51.46-53.44,70.91-85,8.18-13.28,16.64-27,25.67-39.31,26.6-36.22,51.24-60.87,73.22-73.25C1871.84,603.42,1884.77,600.93,1896.47,604.19Z"
          transform="translate(-1 0)"/>
    <path id="Path_1401" data-name="Path 1401" class="cls-1"
          d="M1855.13,572.33c14.76-8.85,28.38-11,40.46-6.48,11.9,4.48,17.86,15.67,23.05,27.26v6l-.39-.89c-5.74-13.1-11.16-25.47-23.52-30.11-11.52-4.34-24.06-2.28-38.35,6.28-30.93,18.49-59.53,62.44-70.39,80.48-6.81,11.31-13.31,23.47-19.6,35.23-19.23,36-39.13,73.16-72.76,97.13-39.45,28.12-101.87,21.45-128.44-13.73a57.42,57.42,0,0,1-8.93-17.31c-3.48-10.9-3.61-22.06-3.74-32.85-.17-13.9-.33-27-7.32-38.81-6-10.1-15.93-17.49-32.22-24-6.58-2.6-13.73-4.9-20.64-7.12-17.77-5.73-36.15-11.64-49.7-23.66-12.4-11-20.3-26.26-24.87-47.87-2.82-13.45-3.94-27.73-5-41.54-.23-3-.46-6-.71-9-1.82-22.13-10.17-74.84-48.45-86.41-39.83-12.15-73.86,30.54-90.9,70.78-17.15,40.47-35.55,62.77-57.92,70.16-19.58,6.47-42.59,1.69-70.33-14.62-4.47-2.63-9.21-5.71-14.07-9.14-58.25-41.52-109.72-53.22-172.06-39.19a317.16,317.16,0,0,0-33,9.47c-16.62,5.69-32.48,12.43-47.81,19-36.42,15.48-70.81,30.1-113.43,31-28.11.62-53.76-5.14-78.58-10.7-6.42-1.44-12.86-2.88-19.36-4.23-43.53-9-108.87-21-173.54-21.35-18.83-.08-38.28.73-56.59,1.58l-3.17.14c-6.58.31-12.94.67-19.2,1-13.64.77-26.53,1.5-40.14,1.59-14.53.09-31.49.1-48.74-1.08-35.23-2.41-82.15-12.19-105.63-45-16.54-23.13-17.62-53-18.67-82-1-28.07-2.06-57.1-16.76-81.08-6.61-10.81-15.36-19.22-22.25-25.34-7.64-6.79-15.24-12.71-22.59-18.44-3.26-2.54-6.46-5-9.55-7.52-10.27-8.25-20.75-17.71-27.79-31-8-15.12-9.81-32.36-10.58-48.74-.22-4.55-.37-9.2-.54-13.92-.77-22.39-1.57-45.53-8.3-66.06a101.68,101.68,0,0,0-14-27.63C50.87,76.48,26.21,53.46,1,31.46V28.23c25.88,22.53,51.36,46.09,69.14,73a104,104,0,0,1,14.3,28.24c6.84,20.87,7.64,44.19,8.42,66.74.16,4.71.32,9.35.53,13.89.76,16.1,2.54,33,10.31,47.72,6.83,12.92,17.09,22.19,27.16,30.28,3.08,2.47,6.27,5,9.52,7.49,7.38,5.75,15,11.7,22.71,18.54,7,6.24,15.93,14.81,22.71,25.89,15,24.53,16.09,53.88,17.12,82.27,1.08,29.88,2.1,58.11,18.22,80.64C244.06,535,290.24,544.57,325,547c17.16,1.18,34.07,1.17,48.56,1.07,13.55-.1,26.41-.81,40-1.58,6.26-.36,12.63-.72,19.22-1l3.17-.14c18.34-.86,37.77-1.68,56.71-1.58,64.88.34,130.39,12.37,174,21.4,6.52,1.34,13,2.79,19.4,4.23,25.81,5.79,50.18,11.27,78,10.65,42.14-.92,76.33-15.45,112.52-30.83,15.38-6.54,31.27-13.3,48-19a319.67,319.67,0,0,1,33.23-9.54c63.11-14.23,115.14-2.38,174,39.57,4.8,3.4,9.48,6.44,13.9,9,27.09,15.93,49.44,20.65,68.32,14.4,21.66-7.15,39.59-29,56.45-68.79,17.43-41.17,52.46-84.78,93.84-72.16,39.72,12,48.32,65.91,50.17,88.53q.38,4.47.72,9c1.07,13.74,2.18,27.94,5,41.23,4.46,21.08,12.12,35.87,24.11,46.56,13.16,11.67,31.29,17.51,48.82,23.15,7,2.24,14.13,4.55,20.8,7.18,11.32,4.51,25.36,11.42,33.41,25,7.33,12.33,7.49,25.78,7.66,40,.13,10.61.26,21.58,3.63,32.14a54.86,54.86,0,0,0,8.56,16.57c25.82,34.22,86.63,40.64,125.09,13.22,33.17-23.64,52.91-60.58,72-96.3,6.3-11.79,12.82-24,19.65-35.33C1797.51,631,1824.87,590.42,1855.13,572.33Z"
          transform="translate(-1 0)"/>
    <path id="Path_1405" data-name="Path 1405" class="cls-1"
          d="M1784.06,622.22c5.39-11,49.62-98.15,95.4-98.14a35.7,35.7,0,0,1,15.24,3.44c13.07,6.11,18.74,20.73,23.94,35.27V570c-.54-1.47-1.06-2.93-1.58-4.4-5.47-15.38-10.64-29.91-23.4-35.87-39.48-18.47-86.1,50.13-107.42,93.56-4.71,9.6-9.3,19.63-13.74,29.33-18.7,40.87-38,83.14-73.75,110.45-25.85,19.77-65.63,25.79-96.76,14.65-22.24-8-37.13-23.6-41.9-44-2.78-11.86-2-24.41-1.24-36.55,1-16.17,2-31.44-4.74-45.25-10-20.52-31.62-28.57-54.54-37.08-17.43-6.47-35.45-13.17-48.42-25.87-23.76-23.26-24.61-58.71-25.44-93-.09-3.65-.17-7.27-.29-10.84-.58-17.88-5.74-77.05-47.74-87.78s-74.44,37.41-89.49,81.89c-16.88,49.9-38,78-64.72,85.94-22.7,6.74-49.5-1.87-79.65-25.62-70.12-55.22-128.87-67.07-209.6-42.27-18.1,5.57-35.21,12.49-51.77,19.19-36,14.57-70.07,28.34-112.06,28.34h-1.23C727,544.54,686.23,538,646.8,531.58c-59.91-9.67-121.86-19.69-187.78-6.77-10.69,2.1-21.53,4.66-32,7.14-25.06,5.93-51,12.06-77.13,12.33-33.61.29-76.68-11.75-95.93-46.78-13.35-24.32-11.83-53.3-10.37-81.33,1.52-28.92,3.08-58.82-12.1-82.75-11.27-17.77-30-29.1-48.16-40.06-17.13-10.35-34.85-21.06-46.7-37.28-16.4-22.44-18.68-50.88-20.88-78.39-1.33-16.61-2.71-33.79-7.14-49.65C94.17,76.36,49.48,41.23,6.25,7.25,4.49,5.86,2.76,4.48,1,3.1V0L7.76,5.34C51.29,39.56,96.31,75,111,127.39c4.49,16.09,5.88,33.39,7.22,50.11,2.28,28.43,4.42,55.27,20.41,77.15,11.57,15.82,29.08,26.41,46,36.64,18.37,11.1,37.37,22.58,49,40.83,15.6,24.59,14,54.88,12.48,84.18-1.45,27.69-2.95,56.33,10.07,80,18.46,33.61,59.53,45.53,92.36,45.53h1.41c25.9-.27,51.67-6.37,76.59-12.27,10.5-2.48,21.36-5.05,32.1-7.15,66.34-13,128.51-3,188.64,6.75,39.34,6.36,80,12.92,122,13.19h1.21c41.51,0,75.36-13.68,111.16-28.16,16.6-6.72,33.76-13.66,52-19.25,80.52-24.76,141.88-12.39,211.82,42.67,29.49,23.22,55.55,31.69,77.45,25.19,25.85-7.68,46.49-35.28,63.1-84.38,15.39-45.47,48.8-94.6,92.4-83.47s49,71.75,49.57,90c.11,3.59.2,7.22.29,10.87.81,33.8,1.66,68.74,24.71,91.31,12.6,12.33,30.37,18.94,47.56,25.32,23.39,8.7,45.48,16.9,55.89,38.3,7,14.39,6,30.7,5,46.47-.75,12-1.53,24.33,1.17,35.84,4.59,19.59,18.92,34.6,40.35,42.28,30.41,10.88,69.25,5,94.47-14.28,35.22-26.94,54.43-68.93,73-109.54C1774.74,641.89,1779.33,631.85,1784.06,622.22Z"
          transform="translate(-1 0)"/>
</svg>